<?xml version="1.0" encoding="UTF-8"?>
<svg version="1.1" xmlns="http://www.w3.org/2000/svg" width="1598" height="679">
<path d="M0 0 C1.9087516 -0.01730415 1.9087516 -0.01730415 3.85606384 -0.03495789 C18.07185729 0.17832698 33.8799381 3.40726558 44.52734375 13.36328125 C54.40957996 23.98418966 55.8050762 35.56471292 55.52734375 49.48828125 C54.74932216 66.94189889 46.45319984 81.91196245 33.90625 93.80078125 C17.47692871 107.61328125 17.47692871 107.61328125 10.21484375 107.61328125 C9.83893554 109.99461491 9.83893554 109.99461491 10.21484375 112.61328125 C12.13518031 114.25263219 12.13518031 114.25263219 14.71484375 115.42578125 C25.21384094 121.26185748 30.53738288 128.98251776 34.46484375 140.17578125 C38.61274812 159.18700962 35.66023934 179.05157617 25.96875 195.95703125 C22.86813009 200.6528476 19.18197914 204.63968473 15.21484375 208.61328125 C14.46460938 209.37511719 13.714375 210.13695312 12.94140625 210.921875 C-18.78878671 241.33436891 -68.76990183 243.99256141 -110.09966946 247.6439352 C-114.01969689 247.99192657 -117.93889654 248.34902736 -121.85821533 248.70489502 C-128.40939003 249.29846381 -134.96108061 249.88600963 -141.51318359 250.46923828 C-149.911119 251.21680367 -158.30809588 251.97463766 -166.70483017 252.73556137 C-173.97158598 253.39400523 -181.23875447 254.04785044 -188.50599384 254.7009325 C-190.8248546 254.90951072 -193.14365859 255.11871136 -195.46245575 255.3279953 C-199.09698036 255.65573225 -202.73175155 255.98059138 -206.36673164 256.30323601 C-208.32880681 256.47797984 -210.29065132 256.65530758 -212.25248718 256.8327179 C-213.42638504 256.93632126 -214.6002829 257.03992462 -215.80975342 257.14666748 C-217.33260012 257.28267427 -217.33260012 257.28267427 -218.8862114 257.42142868 C-221.86127744 257.61831896 -224.80448821 257.64637665 -227.78515625 257.61328125 C-227.19914632 251.48258067 -225.85899426 245.98798761 -223.99609375 240.12890625 C-223.56011368 238.72724716 -223.56011368 238.72724716 -223.11532593 237.29727173 C-222.47598333 235.24350525 -221.8336925 233.19065483 -221.18884277 231.13861084 C-219.36459227 225.33021195 -217.56479026 219.51421976 -215.76171875 213.69921875 C-215.56647614 213.07047474 -215.37123352 212.44173073 -215.17007446 211.79393387 C-210.11852218 195.52609759 -205.19269203 179.22038675 -200.26780319 162.91384888 C-199.04049281 158.85060347 -197.81232116 154.7876184 -196.58422852 150.72460938 C-195.10530307 145.83158035 -193.62645909 140.93852679 -192.14802551 136.04534912 C-188.86751246 125.18862498 -185.58066103 114.33383679 -182.2890625 103.48046875 C-181.84688108 102.02229372 -181.4047017 100.56411806 -180.96252441 99.10594177 C-179.25680681 93.48125909 -177.55096933 87.85661298 -175.84393311 82.23233032 C-171.84975527 69.0720471 -167.86226079 55.91008989 -163.9453125 42.7265625 C-163.65749405 41.75945343 -163.3696756 40.79234436 -163.07313538 39.79592896 C-161.77830973 35.44429063 -160.48805568 31.0914318 -159.20825195 26.73535156 C-158.77314075 25.26882337 -158.33785131 23.80234804 -157.90234375 22.3359375 C-157.53737793 21.09593994 -157.17241211 19.85594238 -156.79638672 18.57836914 C-155.78515625 15.61328125 -155.78515625 15.61328125 -153.78515625 12.61328125 C-151.55971622 12.05672932 -151.55971622 12.05672932 -148.73097229 11.79695129 C-147.65972107 11.69185745 -146.58846985 11.58676361 -145.48475647 11.47848511 C-143.71254982 11.32635056 -143.71254982 11.32635056 -141.90454102 11.17114258 C-140.04259598 10.99492119 -140.04259598 10.99492119 -138.14303589 10.81513977 C-134.72228953 10.49474719 -131.30086598 10.18712063 -127.8784039 9.88595033 C-124.99807226 9.63077345 -122.11858344 9.36671534 -119.23905796 9.1026203 C-112.40484764 8.47588693 -105.56946596 7.86335914 -98.7331543 7.26000977 C-92.53387734 6.71270876 -86.33608341 6.15140686 -80.1394043 5.57543945 C-20.96974236 0.08034558 -20.96974236 0.08034558 0 0 Z M-70.72265625 71.61328125 C-72.67766845 71.80665728 -74.63274637 71.99937003 -76.58789062 72.19140625 C-81.32110334 72.65773818 -86.0533417 73.13297828 -90.78515625 73.61328125 C-91.91526966 76.94490256 -93.03829884 80.27887173 -94.16015625 83.61328125 C-94.63582031 85.01513672 -94.63582031 85.01513672 -95.12109375 86.4453125 C-96.91739713 91.79679965 -98.50153614 97.11575675 -99.78515625 102.61328125 C-93.41871748 102.69221563 -87.19033688 102.41744613 -80.8515625 101.84375 C-79.93358383 101.76208084 -79.01560516 101.68041168 -78.06980896 101.5962677 C-76.14098235 101.42277525 -74.21235822 101.247018 -72.28393555 101.0690918 C-69.36003732 100.8019126 -66.43506323 100.55015755 -63.50976562 100.29882812 C-61.62361142 100.1272503 -59.73754046 99.95475439 -57.8515625 99.78125 C-56.99083633 99.70923874 -56.13011017 99.63722748 -55.24330139 99.56303406 C-45.04808248 98.58340997 -36.75838877 96.42263278 -29.78515625 88.61328125 C-26.86600635 84.23455639 -26.11865605 80.85006856 -26.78515625 75.61328125 C-28.9219491 72.22388569 -29.96263295 70.88745568 -33.78515625 69.61328125 C-46.13809482 68.87303025 -58.45134601 70.36531591 -70.72265625 71.61328125 Z M-86.57128906 147.26733398 C-89.57155837 147.55426254 -92.57272674 147.82970128 -95.57421875 148.10351562 C-97.49355075 148.28189521 -99.41282404 148.46090777 -101.33203125 148.640625 C-102.66944366 148.76412575 -102.66944366 148.76412575 -104.03387451 148.89012146 C-105.27732635 149.01013268 -105.27732635 149.01013268 -106.54589844 149.13256836 C-107.63266876 149.2358268 -107.63266876 149.2358268 -108.74139404 149.34117126 C-110.85505745 149.62258801 -112.77111334 149.90151234 -114.78515625 150.61328125 C-116.18821455 153.44504601 -116.18821455 153.44504601 -117.14453125 156.984375 C-117.33863586 157.62190201 -117.53274048 158.25942902 -117.73272705 158.91627502 C-118.3494238 160.95673132 -118.94208065 163.00334982 -119.53515625 165.05078125 C-119.94903737 166.42687934 -120.3643847 167.80253735 -120.78125 169.17773438 C-122.8897604 175.29710684 -122.8897604 175.29710684 -123.78515625 181.61328125 C-111.30683154 181.04730009 -98.87489782 180.22775432 -86.43896484 179.04858398 C-84.6560448 178.88210157 -82.8724826 178.72237031 -81.08837891 178.5690918 C-62.30863382 177.35738982 -62.30863382 177.35738982 -47.08984375 167.33203125 C-44.04988047 163.32728921 -43.28531687 159.66807169 -43.390625 154.61328125 C-44.10571568 150.9882671 -46.17940253 149.15699321 -48.78515625 146.61328125 C-58.23406351 141.88882762 -76.38019214 146.29146439 -86.57128906 147.26733398 Z " fill="#093583" transform="translate(756.78515625,73.38671875)"/>
<path d="M0 0 C0.68449219 0.62261719 1.36898437 1.24523437 2.07421875 1.88671875 C2.89277344 2.60214844 3.71132813 3.31757812 4.5546875 4.0546875 C19.20669618 17.64270766 27.28618887 38.20119975 28.36157227 58.01245117 C28.50921583 62.26315288 28.49611045 66.50931312 28.44921875 70.76171875 C28.44273819 71.88040848 28.44273819 71.88040848 28.43612671 73.021698 C28.36218536 83.91207788 27.8954499 94.31274439 25.07421875 104.88671875 C24.89729492 105.5739502 24.72037109 106.26118164 24.53808594 106.96923828 C18.60280903 129.76213673 8.69504511 151.3554768 -5.92578125 169.88671875 C-6.34939941 170.42458008 -6.77301758 170.96244141 -7.20947266 171.51660156 C-35.80249744 207.36810386 -74.94698737 230.35589013 -119.92578125 238.88671875 C-121.63121094 239.22703125 -121.63121094 239.22703125 -123.37109375 239.57421875 C-152.14921431 244.38170061 -185.35093707 242.36977747 -209.84375 225.16015625 C-228.03855835 211.73889077 -237.19558696 193.05695505 -241.46069336 171.13769531 C-243.90571828 154.04690692 -243.40989204 133.52512985 -238.92578125 116.88671875 C-238.61979004 115.71810303 -238.61979004 115.71810303 -238.30761719 114.52587891 C-232.18298378 91.46712446 -222.15650803 69.40056815 -206.92578125 50.88671875 C-206.46413574 50.32500977 -206.00249023 49.76330078 -205.52685547 49.18457031 C-174.2635875 11.37159097 -130.99493004 -13.57722924 -81.75952148 -18.64892578 C-53.77630064 -21.03087346 -22.36838868 -18.95987231 0 0 Z M-136.31640625 78.15625 C-149.68992409 92.23483426 -158.77256995 111.00743511 -159.30078125 130.57421875 C-159.02229902 140.21666612 -156.39779498 148.57599914 -149.92578125 155.88671875 C-141.30182587 162.98969435 -132.02132625 165.77760193 -120.92578125 164.88671875 C-100.11325414 161.72878453 -83.25468208 151.78961439 -70.23828125 135.19921875 C-59.27371095 119.89531321 -52.99035814 102.76696867 -54.92578125 83.88671875 C-56.88614221 74.94394853 -61.17583249 67.09947137 -68.92578125 62.01171875 C-91.4082193 49.39445596 -119.22834864 61.93376394 -136.31640625 78.15625 Z " fill="#093583" transform="translate(526.92578125,111.11328125)"/>
<path d="M0 0 C8.24642635 8.91960401 11.66161938 20.23852531 11.41015625 32.19140625 C9.54467975 54.89282025 9.54467975 54.89282025 3.15625 61.28125 C1.04359454 61.55339615 -1.07728582 61.76186912 -3.19946289 61.94555664 C-3.86285172 62.00422409 -4.52624054 62.06289154 -5.20973206 62.12333679 C-7.41160538 62.31698244 -9.61397641 62.50420517 -11.81640625 62.69140625 C-13.33958817 62.82410491 -14.86273543 62.95720202 -16.385849 63.09068298 C-20.40177144 63.44154183 -24.41814383 63.78696507 -28.43463135 64.13128662 C-32.53027217 64.48335294 -36.6254678 64.84051898 -40.72070312 65.19726562 C-48.76129007 65.89693999 -56.80235912 66.59087689 -64.84375 67.28125 C-64.96274658 66.67071777 -65.08174316 66.06018555 -65.2043457 65.43115234 C-65.45317505 64.22386475 -65.45317505 64.22386475 -65.70703125 62.9921875 C-65.94740112 61.79795166 -65.94740112 61.79795166 -66.19262695 60.57958984 C-67.27713793 56.75147349 -68.92202752 55.00819098 -71.84375 52.28125 C-85.76392055 45.07259025 -104.45207928 47.03557837 -118.99414062 51.62646484 C-126.63782642 54.33242647 -133.12141452 57.83657903 -136.84375 65.28125 C-137.37585474 70.71033935 -137.37585474 70.71033935 -135.46875 75.59375 C-128.35371452 80.16770138 -119.84423424 80.81830342 -111.59765625 81.34375 C-110.54706528 81.42117432 -109.4964743 81.49859863 -108.41404724 81.57836914 C-105.07877507 81.82327652 -101.74274575 82.05366811 -98.40625 82.28125 C-58.2707303 85.05879462 -58.2707303 85.05879462 -44.34375 90.03125 C-43.60656738 90.28801514 -42.86938477 90.54478027 -42.10986328 90.80932617 C-30.79438947 94.93385483 -20.92884215 101.37593453 -15.27734375 112.3125 C-7.45130139 130.32800493 -9.56759134 152.08106778 -16.59375 170.09375 C-27.00904715 195.09627997 -48.69242099 212.08509968 -73.09375 222.46875 C-117.11595961 240.51759091 -178.7881119 251.35072619 -224.62109375 233.72265625 C-236.91347482 228.22460944 -244.572753 221.14117683 -249.8984375 208.796875 C-255.67469112 193.42535712 -251.87607394 174.37822183 -246.84375 159.28125 C-243.56384501 158.18794834 -240.70720782 157.91633783 -237.26098633 157.61694336 C-236.59730545 157.55827591 -235.93362457 157.49960846 -235.24983215 157.43916321 C-233.05876931 157.24634588 -230.86729596 157.05869948 -228.67578125 156.87109375 C-227.15546433 156.73831968 -225.63517553 156.60522315 -224.11491394 156.47181702 C-220.11539791 156.1217247 -216.11551457 155.77601647 -212.11553955 155.43121338 C-208.03317614 155.07852912 -203.95117451 154.72170889 -199.86914062 154.36523438 C-191.86102577 153.66651969 -183.85251823 152.97243512 -175.84375 152.28125 C-175.729104 153.04050781 -175.61445801 153.79976562 -175.49633789 154.58203125 C-175.25258423 156.07283203 -175.25258423 156.07283203 -175.00390625 157.59375 C-174.77006226 159.07294922 -174.77006226 159.07294922 -174.53149414 160.58203125 C-173.98291137 163.56546466 -173.98291137 163.56546466 -171.28125 166.28125 C-163.22192592 170.97031128 -155.76274943 171.80434732 -146.53125 171.71875 C-145.39421631 171.71190186 -144.25718262 171.70505371 -143.08569336 171.69799805 C-126.56582292 171.38892332 -108.88675769 169.04180705 -96.0859375 157.7109375 C-94.00639982 155.31750734 -93.81264977 153.00134794 -93.46875 149.90625 C-93.57355845 146.25329915 -93.57355845 146.25329915 -95.59375 143.53125 C-104.261593 137.53043562 -115.56201578 137.76176124 -125.76428223 137.37265015 C-129.75081613 137.21623254 -133.73466004 137.00950757 -137.71875 136.80078125 C-138.50582336 136.75967728 -139.29289673 136.7185733 -140.1038208 136.67622375 C-162.33458887 135.46729674 -189.30433947 133.21445602 -205.84375 116.28125 C-216.15748206 103.75417279 -218.89116294 90.24397339 -217.84375 74.28125 C-215.76133111 54.77080189 -207.78260738 37.89779227 -194.84375 23.28125 C-194.31394531 22.66765625 -193.78414062 22.0540625 -193.23828125 21.421875 C-166.50485152 -7.44198229 -121.23944942 -18.26376788 -83.42578125 -20.59375 C-54.46420817 -21.60440468 -22.49335935 -20.96838583 0 0 Z " fill="#093583" transform="translate(277.84375,135.71875)"/>
<path d="M0 0 C0.70860954 6.45869471 1.19735295 12.88069383 1.42396545 19.37341309 C1.47424972 20.70484226 1.47424972 20.70484226 1.52554983 22.063169 C1.63598454 25.00750499 1.74195255 27.95198379 1.84790039 30.89648438 C1.92659959 33.0196479 2.00557104 35.14280135 2.08479309 37.26594543 C2.29836566 43.01160531 2.50800564 48.75740249 2.71682668 54.50323677 C2.93632142 60.52709495 3.15911373 66.55083128 3.38145447 72.57458496 C3.75427584 82.68880474 4.12462343 92.80311274 4.4934082 102.91748047 C4.91930392 114.59758305 5.3487035 126.27755266 5.78007513 137.9574542 C6.1956382 149.21061085 6.60910228 160.4638436 7.02148247 171.71711731 C7.19670703 176.49837994 7.37259137 181.27961763 7.54899788 186.06083679 C7.75674187 191.69474401 7.96262088 197.32871647 8.16708183 202.96274376 C8.2422377 205.02587353 8.31800955 207.08898098 8.39445496 209.15206337 C8.49901557 211.97684541 8.60129509 214.80170146 8.70301819 217.62658691 C8.74868639 218.83916617 8.74868639 218.83916617 8.79527718 220.07624197 C8.99507805 225.71925774 9.03172913 231.35370495 9 237 C-0.93563631 237.9158897 -10.87153795 238.82883978 -20.80778694 239.73806 C-25.42179641 240.16035933 -30.03570914 240.58366258 -34.64941406 241.00927734 C-39.10363406 241.42014208 -43.55809058 241.82834721 -48.01272202 242.23472595 C-49.71041391 242.39006776 -51.40801908 242.54636031 -53.1055336 242.70362854 C-55.4869611 242.92409336 -57.86867721 243.14114591 -60.25048828 243.35742188 C-61.2981411 243.45560463 -61.2981411 243.45560463 -62.36695862 243.55577087 C-66.28748463 243.90770206 -70.04384985 244 -74 244 C-74 234.76 -74 225.52 -74 216 C-77.92181152 216.36351562 -77.92181152 216.36351562 -81.92285156 216.734375 C-90.55605541 217.53432426 -99.18944414 218.33226386 -107.82292557 219.12921143 C-113.05798456 219.6125166 -118.29297891 220.09650094 -123.52783203 220.58203125 C-128.57862693 221.05046514 -133.62958303 221.51712308 -138.68065643 221.98254395 C-140.60884209 222.1605286 -142.53696854 222.33915585 -144.46503448 222.51843262 C-147.16305973 222.76919217 -149.86128539 223.01767752 -152.55957031 223.265625 C-153.35870346 223.34043091 -154.15783661 223.41523682 -154.98118591 223.49230957 C-158.34316583 223.7991523 -161.62029677 224 -165 224 C-166.05256551 226.58300638 -167.05640049 229.16287949 -167.96923828 231.79907227 C-170.94851213 239.96333957 -174.68731041 248.8018622 -182 254 C-191.44710132 258.27990907 -203.24151427 257.59287827 -213.39779663 257.77082825 C-223.56145634 257.95194098 -233.62111458 258.96246351 -243.73187256 259.95736694 C-248.5425774 260.42380558 -253.356782 260.84732499 -258.171875 261.265625 C-259.00860748 261.34030502 -259.84533997 261.41498505 -260.70742798 261.4919281 C-264.15777641 261.7929542 -267.53352452 262 -271 262 C-269.5205434 256.60632395 -266.96541142 252.49678487 -263.9375 247.875 C-258.67909338 239.70358107 -253.58734882 231.44102795 -248.5625 223.125 C-243.51926418 214.78735859 -238.45543964 206.46420737 -233.3125 198.1875 C-228.83537355 190.98204848 -224.40299376 183.75099316 -220 176.5 C-215.04950221 168.34928359 -210.05930776 160.22473536 -205.03295898 152.12060547 C-194.97499417 135.90257223 -184.9855098 119.64310701 -175.07836914 103.33251953 C-170.72239189 96.1682546 -166.3162446 89.0362128 -161.89379883 81.9128418 C-157.89408123 75.46303223 -153.93930329 68.98685715 -150 62.5 C-144.43741285 53.34442779 -138.84796185 44.20682874 -133.171875 35.12109375 C-130.98788662 31.61957601 -128.86201237 28.08976229 -126.765625 24.53515625 C-126.23791504 23.65762695 -125.71020508 22.78009766 -125.16650391 21.87597656 C-124.16756281 20.21476632 -123.18436145 18.54394796 -122.22021484 16.86230469 C-121.76855957 16.12012695 -121.3169043 15.37794922 -120.8515625 14.61328125 C-120.27656006 13.63548706 -120.27656006 13.63548706 -119.68994141 12.63793945 C-115.19249513 8.27888614 -107.12411448 8.45756374 -101.20019531 7.94677734 C-100.24148529 7.85870316 -99.28277527 7.77062897 -98.29501343 7.67988586 C-95.13995112 7.39185336 -91.98411152 7.1136456 -88.828125 6.8359375 C-86.62241614 6.6374659 -84.41674856 6.43853498 -82.21112061 6.23916626 C-77.59164092 5.82310845 -72.97177321 5.41176407 -68.3515625 5.00390625 C-62.45226913 4.48287881 -56.55396434 3.95151062 -50.65590286 3.41673851 C-46.10069484 3.00466021 -41.54506096 2.59745955 -36.9892807 2.19176102 C-34.81562117 1.99773933 -32.64208018 1.80238467 -30.46866608 1.60563278 C-27.41864477 1.33039922 -24.36812076 1.06159149 -21.31738281 0.79443359 C-20.43285431 0.71341904 -19.54832581 0.63240448 -18.63699341 0.54893494 C-12.412006 0.01325583 -6.24547426 -0.06954135 0 0 Z M-77.93554688 86.85839844 C-80.56746842 86.85952415 -82.51804466 87.09728213 -85 88 C-87.8707348 91.01933011 -89.60483269 94.56385604 -91.5 98.25 C-92.69887374 100.43970468 -93.89947373 102.62846488 -95.1015625 104.81640625 C-95.73490535 105.99223996 -96.3680392 107.16818626 -97.00097656 108.34423828 C-100.11463964 114.08612994 -103.45491784 119.69741679 -106.77514648 125.32141113 C-107.84224233 127.13192103 -108.90355325 128.945684 -109.96289062 130.76074219 C-112.69195388 135.42950325 -115.42284681 140.09400281 -118.28613281 144.68212891 C-118.84398972 145.57693718 -118.84398972 145.57693718 -119.41311646 146.48982239 C-120.44937228 148.14493999 -121.49231214 149.7958673 -122.53564453 151.4465332 C-124.16582605 153.79856595 -124.16582605 153.79856595 -124 156 C-107.25171092 155.32541613 -90.72358809 153.56783638 -74 152 C-74 130.55 -74 109.1 -74 87 C-76 87 -76 87 -77.93554688 86.85839844 Z " fill="#093583" transform="translate(1035,48)"/>
<path d="M0 0 C-0.59059394 4.78621625 -1.53427221 9.22475386 -2.93359375 13.83740234 C-3.22401047 14.80212967 -3.22401047 14.80212967 -3.52029419 15.78634644 C-4.15434154 17.88776768 -4.79571354 19.98686815 -5.4375 22.0859375 C-5.88243689 23.55316536 -6.32701135 25.02050318 -6.77124023 26.48794556 C-7.69942054 29.55008101 -8.63108588 32.61112644 -9.56542969 35.67138672 C-10.76493734 39.60070964 -11.95699082 43.5322458 -13.14665222 47.46455956 C-14.06208692 50.48835795 -14.98072361 53.51117567 -15.90042114 56.53367996 C-16.3414348 57.98396086 -16.78160159 59.43449956 -17.22091675 60.88529587 C-17.83292151 62.90416478 -18.44905443 64.92172564 -19.06640625 66.93896484 C-19.41646729 68.08811371 -19.76652832 69.23726257 -20.12719727 70.42123413 C-21 73 -21 73 -22 74 C-24.31489998 74.29856813 -26.61088191 74.5375992 -28.93481445 74.74023438 C-29.6600531 74.8070491 -30.38529175 74.87386383 -31.13250732 74.94270325 C-33.542413 75.16378574 -35.95283524 75.37864605 -38.36328125 75.59375 C-40.03383198 75.74638678 -41.70433834 75.89950987 -43.37480164 76.05310059 C-47.78375406 76.45757208 -52.19312985 76.85720387 -56.60266113 77.25531006 C-63.65080218 77.89173507 -70.69855488 78.53228832 -77.74577904 79.17878723 C-80.20945662 79.4036195 -82.67346885 79.62448119 -85.13752747 79.84509277 C-86.65070085 79.98315035 -88.1638598 80.12136619 -89.67700195 80.25976562 C-90.36235519 80.32005447 -91.04770844 80.38034332 -91.75382996 80.44245911 C-93.50490529 80.60465536 -95.25278216 80.800495 -97 81 C-97.76252075 81.04918579 -98.5250415 81.09837158 -99.31066895 81.14904785 C-101.30807164 81.93728046 -101.30807164 81.93728046 -102.2618866 84.68823242 C-102.62172134 85.89842041 -102.98155609 87.1086084 -103.35229492 88.35546875 C-103.55706231 89.02691799 -103.7618297 89.69836723 -103.97280216 90.39016342 C-104.65806471 92.65144993 -105.31894529 94.91916519 -105.98046875 97.1875 C-106.46571802 98.80476585 -106.95255183 100.42155701 -107.44085693 102.03790283 C-108.49053234 105.52349225 -109.52975752 109.01196612 -110.56100464 112.50305176 C-112.19085198 118.01974166 -113.84310656 123.52954082 -115.50024414 129.03808594 C-116.06637788 130.92082299 -116.63246331 132.80357458 -117.19850159 134.68634033 C-117.48183413 135.62875832 -117.76516666 136.5711763 -118.05708504 137.5421524 C-118.9297358 140.4480512 -119.80008159 143.35463128 -120.66978455 146.26141357 C-126.69837282 166.40146104 -132.89371396 186.48919508 -139.10919571 206.57220459 C-140.20854714 210.12625862 -141.30583731 213.68094728 -142.40295601 217.23569107 C-143.43158331 220.56836012 -144.46089133 223.90081859 -145.49042511 227.2332077 C-145.96699055 228.77583304 -146.44341953 230.31850053 -146.91970062 231.86121368 C-147.57069861 233.9692124 -148.22258925 236.0769329 -148.87475586 238.18457031 C-149.23903183 239.36287415 -149.6033078 240.54117798 -149.97862244 241.75518799 C-150.31567703 242.82597595 -150.65273163 243.89676392 -151 245 C-151.33258316 246.10994324 -151.66516632 247.21988647 -152.00782776 248.36346436 C-153 251 -153 251 -155 252 C-157.40768655 252.29691589 -159.80059166 252.54414729 -162.21606445 252.75610352 C-162.95934998 252.82452454 -163.7026355 252.89294556 -164.46844482 252.96343994 C-166.93304555 253.18924596 -169.39813164 253.40917974 -171.86328125 253.62890625 C-173.57482994 253.78412937 -175.28635205 253.93964579 -176.99784851 254.09544373 C-180.58973274 254.42154339 -184.181851 254.74488708 -187.77416992 255.06616211 C-192.37461408 255.47770279 -196.97453576 255.89476925 -201.57430744 256.31375217 C-205.11120245 256.635518 -208.6483033 256.95497051 -212.1854763 257.27366447 C-213.88116733 257.4266017 -215.5768072 257.58010731 -217.27239418 257.7341938 C-219.64665123 257.94947624 -222.02115472 258.16179826 -224.39575195 258.37329102 C-225.09464035 258.43717514 -225.79352875 258.50105927 -226.51359558 258.56687927 C-230.02086852 258.87599871 -233.47899078 259.06811535 -237 259 C-234.63596354 248.85506223 -231.61509582 238.94868243 -228.5390625 229.00390625 C-227.99446602 227.23470644 -227.45017762 225.46541177 -226.90617371 223.69602966 C-225.74928349 219.93508424 -224.59056327 216.17470986 -223.43032837 212.41479492 C-220.68943346 203.5320605 -217.95797816 194.64642154 -215.22561836 185.76105881 C-214.29828489 182.7457892 -213.37058366 179.73063291 -212.44285583 176.71548462 C-206.75988035 158.24120174 -201.1209434 139.75363551 -195.49962616 121.26050949 C-194.81140662 118.99640299 -194.12303707 116.73234214 -193.43463135 114.46829224 C-190.95493357 106.3126464 -188.47655796 98.15659992 -186 90 C-194.56483158 89.75925965 -203.01099062 90.51637233 -211.52734375 91.3125 C-213.00798183 91.44745238 -214.48865994 91.58196612 -215.96937561 91.71606445 C-219.83675691 92.06730025 -223.70364833 92.42365176 -227.57043457 92.78137207 C-233.78266008 93.35514835 -239.99562251 93.92089299 -246.20855904 94.48690796 C-248.37298297 94.68481535 -250.53720394 94.88483108 -252.70140076 95.08520508 C-254.01028763 95.20532959 -255.3191745 95.3254541 -256.66772461 95.44921875 C-257.82114853 95.55580811 -258.97457245 95.66239746 -260.16294861 95.7722168 C-263 96 -263 96 -266 96 C-263.88129459 87.1888187 -261.45636199 78.49457659 -258.875 69.80859375 C-258.68290955 69.16138933 -258.49081909 68.51418491 -258.29290771 67.84736824 C-257.28100626 64.43891501 -256.26589078 61.03143903 -255.24804688 57.62475586 C-254.2007078 54.11690838 -253.16499098 50.60573575 -252.13168335 47.09373379 C-251.32996405 44.37663853 -250.51970912 41.66214367 -249.70709229 38.94828987 C-249.13432586 37.02737043 -248.57074673 35.10371929 -248.00732422 33.18003845 C-247.65686035 32.01775223 -247.30639648 30.855466 -246.9453125 29.65795898 C-246.64125488 28.63492172 -246.33719727 27.61188446 -246.02392578 26.55784607 C-244.95976448 23.89948855 -244.18275689 22.79375294 -242 21 C-240.1513204 20.4927519 -240.1513204 20.4927519 -238.03555965 20.30289173 C-237.22760572 20.22376728 -236.41965179 20.14464283 -235.58721441 20.06312066 C-234.70007413 19.99014927 -233.81293384 19.91717788 -232.89891052 19.84199524 C-231.95601876 19.75367737 -231.01312699 19.66535949 -230.04166275 19.57436532 C-226.86922386 19.28057044 -223.6954003 19.00621583 -220.52124023 18.73168945 C-218.25123297 18.52550272 -215.98133242 18.31813806 -213.71153259 18.10968018 C-207.53461251 17.54590078 -201.35629896 16.9990195 -195.17758441 16.45530725 C-188.71384356 15.88390049 -182.25142535 15.29790257 -175.78883362 14.71366882 C-164.92731939 13.73389604 -154.06494355 12.76422287 -143.2019043 11.80151367 C-132.03738418 10.81207102 -120.8736323 9.81450142 -109.71069336 8.80737305 C-109.02415259 8.74543431 -108.33761182 8.68349557 -107.63026678 8.61967991 C-106.24712001 8.4948887 -104.86397329 8.37009691 -103.48082662 8.24530454 C-102.45725674 8.15295681 -102.45725674 8.15295681 -101.41300869 8.05874348 C-100.73230321 7.99732659 -100.05159773 7.9359097 -99.35026481 7.87263169 C-88.05776769 6.85407906 -76.76456419 5.84340328 -65.47132993 4.83306098 C-61.62450615 4.48858682 -57.77777691 4.14307153 -53.93105888 3.79741859 C-47.87486945 3.25372398 -41.8182719 2.71481242 -35.76133156 2.17955017 C-33.54167676 1.98273241 -31.32215307 1.78442933 -29.10277557 1.5845089 C-26.06552652 1.3112065 -23.02783752 1.04343812 -19.98997498 0.77705383 C-18.68268713 0.6575585 -18.68268713 0.6575585 -17.34898943 0.53564912 C-11.55341273 0.03549474 -5.81588706 -0.08652236 0 0 Z " fill="#093583" transform="translate(1317,22)"/>
<path d="M0 0 C8.63820465 7.75175134 12.54132879 18.96780054 13.2890625 30.25390625 C14.0664813 50.11153552 7.85260817 67.78914581 -5.3671875 82.80078125 C-12.88726483 90.57001776 -21.71032902 96.02869949 -30.9609375 101.48046875 C-30.14302734 101.95613281 -30.14302734 101.95613281 -29.30859375 102.44140625 C-18.06395856 109.39962495 -11.68762766 117.7864304 -7.9609375 130.48046875 C-3.32012694 150.65781469 -7.43585224 171.96474101 -17.75878906 189.61865234 C-21.14259525 194.85929125 -25.48679633 199.17418858 -29.9609375 203.48046875 C-30.67894531 204.20621094 -31.39695312 204.93195313 -32.13671875 205.6796875 C-62.32536741 234.61758236 -110.36804274 238.09825762 -149.67313004 241.6265564 C-154.04984476 242.02133972 -158.42559288 242.42660767 -162.80151367 242.83007812 C-171.09472935 243.59282586 -179.3887254 244.34670788 -187.68310547 245.09667969 C-199.11239048 246.13015564 -210.5409481 247.17141146 -221.96923828 248.21582031 C-240.40303138 249.9002629 -258.8373586 251.57877696 -277.27205527 253.25330126 C-282.61271008 253.73848208 -287.95329292 254.22444643 -293.29382509 254.71097529 C-301.86894994 255.49214579 -310.44429159 256.27084816 -319.0200724 257.04478705 C-323.01300269 257.40518166 -327.00582053 257.76672104 -330.99836922 258.13132095 C-334.70417868 258.46968192 -338.41027963 258.80464454 -342.11663389 259.13698316 C-344.10257592 259.31591196 -346.08820027 259.49835597 -348.07381058 259.68092918 C-349.86208078 259.84025901 -349.86208078 259.84025901 -351.68647766 260.00280762 C-352.71172704 260.09565788 -353.73697641 260.18850815 -354.79329395 260.28417206 C-358.50928858 260.51444969 -362.23781464 260.48046875 -365.9609375 260.48046875 C-365.9609375 251.24046875 -365.9609375 242.00046875 -365.9609375 232.48046875 C-373.95289593 233.22707356 -381.94483982 233.97381629 -389.93667603 234.72172546 C-393.6605526 235.07018633 -397.38444881 235.41843388 -401.10839844 235.76611328 C-401.82722702 235.83328269 -402.5460556 235.9004521 -403.28666687 235.96965694 C-404.72788881 236.10418117 -406.16914241 236.23836652 -407.61042786 236.3722086 C-411.15205654 236.70184125 -414.69271891 237.03863556 -418.23217773 237.39085388 C-424.23302637 237.98305641 -430.20997721 238.53219062 -436.23828125 238.74633789 C-444.9779814 238.88969839 -444.9779814 238.88969839 -452.63574219 242.58300781 C-454.70394119 245.35861446 -456.08444204 247.9963108 -457.4609375 251.16796875 C-458.20537109 252.64040039 -458.20537109 252.64040039 -458.96484375 254.14257812 C-459.91917138 256.03978145 -460.84653044 257.9508688 -461.7421875 259.87646484 C-466.01601706 269.00800853 -466.01601706 269.00800853 -468.9609375 270.48046875 C-471.68321782 270.80828162 -474.39310088 271.08581135 -477.12329102 271.32836914 C-477.96744064 271.40654373 -478.81159027 271.48471832 -479.68132019 271.56526184 C-482.48380273 271.82364563 -485.28678627 272.07606039 -488.08984375 272.328125 C-490.03842806 272.50582012 -491.9869904 272.68375617 -493.93553162 272.86192322 C-498.0284821 273.23521801 -502.121686 273.60556616 -506.21508789 273.97387695 C-511.44526114 274.44470699 -516.67474325 274.92276267 -521.90405369 275.4030695 C-525.93340183 275.77234216 -529.9630961 276.13771946 -533.99290276 276.50195122 C-535.9197973 276.67657981 -537.84658406 276.85240225 -539.7732563 277.02946663 C-542.47943886 277.27757798 -545.18604621 277.52042372 -547.89282227 277.76196289 C-549.07387039 277.87181519 -549.07387039 277.87181519 -550.27877808 277.98388672 C-555.52489064 278.44466653 -560.6943412 278.54059853 -565.9609375 278.48046875 C-564.40607496 272.47751842 -561.17180887 267.74472302 -557.8359375 262.60546875 C-556.99095703 261.28675781 -556.99095703 261.28675781 -556.12890625 259.94140625 C-554.74533166 257.7839679 -553.35591023 255.63054766 -551.9609375 253.48046875 C-552.67636719 254.05410156 -553.39179687 254.62773438 -554.12890625 255.21875 C-555.06347656 255.96511719 -555.99804688 256.71148438 -556.9609375 257.48046875 C-558.22357422 258.49173828 -558.22357422 258.49173828 -559.51171875 259.5234375 C-602.38598727 292.81618632 -666.24298119 302.71753228 -719.1484375 296.73046875 C-737.06596659 294.34393045 -754.50540158 289.47287558 -766.9609375 275.48046875 C-774.20798679 265.8485094 -776.51705548 255.81352033 -776.3984375 243.91796875 C-776.39303955 242.87455322 -776.3876416 241.8311377 -776.38208008 240.75610352 C-776.15087205 228.84569142 -773.70294568 218.37207865 -768.9609375 207.48046875 C-759.08640831 206.56671042 -749.21178927 205.65392991 -739.3370533 204.74240875 C-734.7521638 204.31915368 -730.16730632 203.89555776 -725.58251953 203.47119141 C-721.16059449 203.06191199 -716.73858862 202.65351676 -712.31652451 202.2457428 C-710.62674912 202.08976439 -708.93700346 201.93346368 -707.24728775 201.77684021 C-704.88645254 201.55806391 -702.52551567 201.34041853 -700.16455078 201.12304688 C-699.46108521 201.05759171 -698.75761963 200.99213654 -698.03283691 200.92469788 C-693.18904182 200.48046875 -693.18904182 200.48046875 -690.9609375 200.48046875 C-691.01894531 201.28871094 -691.07695313 202.09695313 -691.13671875 202.9296875 C-691.48495267 209.51829085 -691.48495267 209.51829085 -689.2109375 215.54296875 C-674.27755541 224.44556192 -653.8651972 220.87915022 -637.76757812 216.94433594 C-630.13868057 214.89367127 -623.15469903 212.68764717 -617.9609375 206.48046875 C-617.31147384 203.1682041 -617.25567799 201.57753909 -619.0859375 198.73046875 C-625.0374317 194.76280595 -632.18451995 194.88249685 -639.0859375 194.41796875 C-640.24303223 194.33345459 -641.40012695 194.24894043 -642.59228516 194.16186523 C-648.69758242 193.72781742 -654.79881402 193.38053327 -660.91455078 193.13989258 C-684.69544104 192.1879856 -710.92322677 188.8533942 -728.9609375 171.7109375 C-740.00263478 159.39685713 -742.67090773 145.81675214 -742.09716797 129.70214844 C-740.79890815 108.52981081 -732.09353502 89.19710522 -717.9609375 73.48046875 C-717.35894531 72.79597656 -716.75695312 72.11148438 -716.13671875 71.40625 C-688.77665329 42.14700429 -642.94511378 29.78958974 -604.18505859 28.26464844 C-599.06886321 28.10673059 -593.95430702 28.05947665 -588.8359375 28.04296875 C-588.02780609 28.03679535 -587.21967468 28.03062195 -586.38705444 28.02426147 C-562.0422879 27.90436399 -536.49012136 31.79206096 -518.18359375 49.19921875 C-508.54114021 59.09586702 -504.57806084 70.52208259 -504.74609375 84.30078125 C-505.32390908 92.8524481 -507.38391245 110.9034437 -513.9609375 117.48046875 C-515.923223 117.75213958 -517.89425302 117.96085847 -519.86669922 118.14477539 C-521.13246796 118.26482437 -522.39823669 118.38487335 -523.70236206 118.50856018 C-525.09842742 118.63615919 -526.4945157 118.76350763 -527.890625 118.890625 C-529.32018297 119.02346931 -530.74971759 119.15656514 -532.17922974 119.28990173 C-535.18692951 119.56936463 -538.19491259 119.84549693 -541.203125 120.11938477 C-545.0308638 120.46818606 -548.85775404 120.82545477 -552.68446159 121.18537235 C-555.6441052 121.46269401 -558.60417957 121.73518177 -561.5643959 122.00631523 C-562.9733179 122.13596681 -564.38210348 122.26711093 -565.79073715 122.39985847 C-573.87169428 123.15855782 -581.84272779 123.67543775 -589.9609375 123.48046875 C-589.9194458 122.76407227 -589.8779541 122.04767578 -589.83520508 121.30957031 C-589.62945742 117.14287706 -589.53616453 114.27904194 -591.5234375 110.54296875 C-599.81516118 103.52689486 -610.68947576 103.83461531 -620.9609375 104.48046875 C-631.64759463 105.52639689 -643.71866796 107.77459714 -651.2578125 115.98046875 C-653.38792897 119.10724521 -653.60605276 120.77105598 -652.9609375 124.48046875 C-649.76502136 127.65952371 -646.75963959 128.064914 -642.375 128.578125 C-641.72246246 128.65595718 -641.06992493 128.73378937 -640.39761353 128.8139801 C-632.88070351 129.67303817 -625.33328531 130.204334 -617.78793335 130.7411499 C-555.34112666 135.24432735 -555.34112666 135.24432735 -537.12109375 154.73828125 C-529.27719295 164.69563814 -526.56977372 175.60548772 -526.6484375 188.04296875 C-526.65037109 189.33255493 -526.65037109 189.33255493 -526.65234375 190.64819336 C-526.75751511 197.7689516 -527.7820461 204.44709823 -529.3046875 211.390625 C-530.06481511 214.44309828 -530.06481511 214.44309828 -529.9609375 217.48046875 C-522.20084579 204.89501644 -514.44841475 192.30557361 -506.7734375 179.66796875 C-501.84264225 171.54989075 -496.86457248 163.46280952 -491.85473633 155.39331055 C-487.85501937 148.94350202 -483.90014083 142.4673858 -479.9609375 135.98046875 C-475.0104213 127.82976337 -470.02024538 119.70520431 -464.99389648 111.60107422 C-454.93958122 95.38892573 -444.95254349 79.13602909 -435.05029297 62.83056641 C-430.62957685 55.55883623 -426.16258515 48.31666396 -421.66137695 41.09448242 C-421.17628662 40.31435791 -420.69119629 39.5342334 -420.19140625 38.73046875 C-419.6612793 37.92915527 -419.13115234 37.1278418 -418.58496094 36.30224609 C-417.26788914 34.01380414 -416.43759999 32.10475724 -415.57910156 29.64697266 C-413.81052637 25.14602476 -411.91626666 21.40928093 -407.9609375 18.48046875 C-399.58021634 15.37386447 -390.26527354 15.40298923 -381.42185593 14.96744537 C-377.91359549 14.77911435 -374.41169172 14.5095419 -370.90844727 14.24560547 C-365.85949733 13.87163554 -360.81000298 13.52145349 -355.7572794 13.20244789 C-342.97773454 12.39336559 -330.24636146 11.17609666 -317.50054932 9.95001221 C-311.78967482 9.40376474 -306.07695489 8.87932543 -300.36328125 8.36328125 C-299.39113174 8.27302673 -298.41898224 8.18277222 -297.41737366 8.08978271 C-296.51772385 8.00875305 -295.61807404 7.92772339 -294.69116211 7.84423828 C-293.91743759 7.77351105 -293.14371307 7.70278381 -292.34654236 7.62991333 C-289.54701418 7.45453881 -286.76520182 7.45689327 -283.9609375 7.48046875 C-282.59266489 35.14967212 -281.5068695 62.82787781 -280.48828125 90.51171875 C-280.4561908 91.38331509 -280.42410035 92.25491142 -280.39103746 93.15291977 C-279.95823284 104.912845 -279.52885439 116.67289443 -279.1005249 128.4329834 C-278.59823196 142.22367761 -278.09446771 156.01431762 -277.58788306 169.80485487 C-277.42995312 174.10620516 -277.27260967 178.40757515 -277.11671257 182.70899963 C-276.19810379 208.1016316 -276.19810379 208.1016316 -274.9609375 233.48046875 C-263.32122342 195.19661342 -251.68755425 156.91094915 -240.09988022 118.61130524 C-239.39824818 116.29234304 -238.6965278 113.9734076 -237.99478149 111.65447998 C-233.29674263 96.12953365 -228.60129149 80.60380992 -223.91298008 65.07592297 C-221.75187491 57.9182927 -219.5896808 50.76099196 -217.42678738 43.60390186 C-215.88153039 38.49019988 -214.33789211 33.37601295 -212.79547215 28.26145458 C-211.84770401 25.1200505 -210.89844825 21.97909745 -209.94877052 18.83827019 C-209.50732071 17.37715662 -209.06650282 15.91585196 -208.6263485 14.45434761 C-208.02615521 12.46173603 -207.4237607 10.46980318 -206.82080078 8.47802734 C-206.48380157 7.3615683 -206.14680237 6.24510925 -205.79959106 5.09481812 C-204.9609375 2.48046875 -204.9609375 2.48046875 -203.9609375 0.48046875 C-201.06444824 -0.48502767 -198.71113577 -0.81435687 -195.68315125 -1.08862305 C-194.58859116 -1.1895224 -193.49403107 -1.29042175 -192.36630249 -1.39437866 C-191.16478546 -1.5014212 -189.96326843 -1.60846375 -188.7253418 -1.71875 C-186.82720985 -1.89212387 -186.82720985 -1.89212387 -184.89073181 -2.06900024 C-181.4151661 -2.38633657 -177.93920811 -2.69916957 -174.46315742 -3.01114273 C-170.81529068 -3.33923035 -167.16777715 -3.6712002 -163.5202179 -4.00268555 C-157.38275536 -4.55987948 -151.2450509 -5.1143409 -145.10717773 -5.66699219 C-138.04244785 -6.3031115 -130.97802865 -6.94258708 -123.9137885 -7.58412075 C-116.36627817 -8.26953726 -108.81858159 -8.95288378 -101.27080941 -9.63541031 C-99.11229272 -9.83070698 -96.95380604 -10.02633254 -94.79532433 -10.22201538 C-90.73698921 -10.58977456 -86.67844424 -10.95516788 -82.61987305 -11.3203125 C-81.44062256 -11.42735504 -80.26137207 -11.53439758 -79.04638672 -11.64468384 C-21.66530426 -16.7884529 -21.66530426 -16.7884529 0 0 Z M-66.23608398 -3.64916992 C-67.29340729 -3.55645309 -68.35073059 -3.46373627 -69.44009399 -3.36820984 C-72.90454725 -3.06308045 -76.36827455 -2.75042949 -79.83203125 -2.4375 C-82.27885951 -2.22008396 -84.72572406 -2.00307603 -87.17262268 -1.78645325 C-92.29937701 -1.33149149 -97.4258045 -0.87305851 -102.55200195 -0.41186523 C-109.03537145 0.1713638 -115.51928406 0.74825089 -122.00342369 1.32284737 C-159.50833233 4.63259922 -159.50833233 4.63259922 -196.9609375 8.48046875 C-202.18002214 23.65204715 -206.81788889 38.99544727 -211.44523621 54.35509872 C-212.54384452 57.99946341 -213.64557803 61.6428831 -214.74707031 65.28637695 C-216.35317267 70.5998266 -217.95847974 75.91351513 -219.56265259 81.22754765 C-223.33253477 93.71566258 -227.11358302 106.20038381 -230.89747334 118.68426037 C-232.10709386 122.67510378 -233.3161785 126.66610899 -234.52479649 130.65725613 C-239.22893331 146.19098116 -243.94538371 161.72090474 -248.67502213 177.2468853 C-250.34633606 182.73405136 -252.01649774 188.2215683 -253.68676186 193.70905399 C-255.31306704 199.05141374 -256.94154856 204.39310407 -258.57160091 209.73432159 C-259.58330622 213.05111893 -260.59305149 216.36851062 -261.60228157 219.68606186 C-262.07371086 221.23423743 -262.54597765 222.78215824 -263.01913261 224.32980728 C-263.66883945 226.45529445 -264.31560199 228.58165636 -264.96166992 230.70825195 C-265.50738899 232.49813286 -265.50738899 232.49813286 -266.06413269 234.32417297 C-266.83480312 237.03654003 -267.46016414 239.70754245 -267.9609375 242.48046875 C-260.6556059 242.60841022 -253.50742517 242.10586953 -246.23461914 241.44238281 C-244.9875972 241.33176514 -243.74057526 241.22114746 -242.45576477 241.10717773 C-239.05353388 240.80429843 -235.65167547 240.49776819 -232.24997258 240.18904591 C-230.11053543 239.99513679 -227.97099701 239.80238701 -225.83141899 239.61003876 C-218.32514357 238.93521281 -210.81925967 238.2562093 -203.3137207 237.57324219 C-196.38976369 236.94330354 -189.4650424 236.32234887 -182.53988367 235.70577455 C-176.54389981 235.17151508 -170.54852567 234.63073297 -164.55355543 234.08521819 C-160.99625871 233.76162233 -157.43879661 233.44035581 -153.88069344 233.12574005 C-86.03942503 227.48596598 -86.03942503 227.48596598 -30.33203125 191.5 C-25.43920335 185.26910054 -21.67294494 178.92519506 -18.9609375 171.48046875 C-18.64253906 170.64 -18.32414063 169.79953125 -17.99609375 168.93359375 C-14.17582206 156.75097619 -13.40093819 139.24378607 -18.83203125 127.4921875 C-19.20457031 126.82832031 -19.57710937 126.16445313 -19.9609375 125.48046875 C-20.5590625 124.40796875 -21.1571875 123.33546875 -21.7734375 122.23046875 C-27.82929758 114.61738751 -34.38889967 110.11133976 -42.9609375 105.48046875 C-42.61815428 103.68236027 -42.23545737 101.89182771 -41.8359375 100.10546875 C-41.52269531 98.60886719 -41.52269531 98.60886719 -41.203125 97.08203125 C-39.9609375 94.48046875 -39.9609375 94.48046875 -37.23046875 93.34765625 C-36.15152344 93.06148438 -35.07257813 92.7753125 -33.9609375 92.48046875 C-17.6225657 83.92327273 -4.53380301 71.61416826 1.5390625 53.91796875 C5.3169357 41.30756792 5.90870744 27.56411114 0.0390625 15.48046875 C-7.8900339 4.34663319 -17.5723156 -0.85169223 -30.875 -3.21484375 C-42.7287839 -4.90340892 -54.32837675 -4.74153829 -66.23608398 -3.64916992 Z M-309.88769531 18.29077148 C-310.85925568 18.37694733 -311.83081604 18.46312317 -312.83181763 18.5519104 C-316.02619052 18.83613527 -319.22013109 19.12492176 -322.4140625 19.4140625 C-324.63888057 19.61361756 -326.86371397 19.81300166 -329.08856201 20.01222229 C-333.7421724 20.42966938 -338.39556795 20.84941966 -343.04882812 21.27075195 C-349.01950265 21.81114908 -354.99070564 22.34543755 -360.96208572 22.87797451 C-365.55185116 23.2880314 -370.14130599 23.70148256 -374.73067474 24.11595345 C-376.93305412 24.31440335 -379.13553343 24.51174729 -381.33811188 24.70797539 C-384.40965339 24.98209616 -387.48074313 25.26081879 -390.55175781 25.54077148 C-391.46504852 25.62133286 -392.37833923 25.70189423 -393.31930542 25.78489685 C-394.1547287 25.8619989 -394.99015198 25.93910095 -395.85089111 26.01853943 C-396.57646839 26.08398673 -397.30204567 26.14943403 -398.04961014 26.21686459 C-400.17797368 26.45078636 -400.17797368 26.45078636 -402.9609375 27.48046875 C-404.56927352 29.61548682 -404.56927352 29.61548682 -406.078125 32.30859375 C-406.97809204 33.83311157 -406.97809204 33.83311157 -407.89624023 35.38842773 C-408.85639038 37.04273804 -408.85639038 37.04273804 -409.8359375 38.73046875 C-410.85405912 40.45667833 -411.87219765 42.1828789 -412.89225769 43.90794373 C-413.58399052 45.07807751 -414.27474879 46.24878793 -414.96455383 47.4200592 C-418.03670447 52.6319218 -421.19927356 57.78340873 -424.3984375 62.91796875 C-425.46104147 64.62753955 -426.5235394 66.33717626 -427.5859375 68.046875 C-428.39998047 69.35615967 -428.39998047 69.35615967 -429.23046875 70.69189453 C-432.46570191 75.90533036 -435.68231457 81.13022938 -438.8984375 86.35546875 C-439.57293945 87.45133301 -440.24744141 88.54719727 -440.94238281 89.67626953 C-445.94860261 97.81768555 -450.9209032 105.97932858 -455.88256836 114.14794922 C-460.23854561 121.31221415 -464.6446929 128.44425595 -469.06713867 135.56762695 C-473.06685563 142.01743548 -477.02173417 148.4935517 -480.9609375 154.98046875 C-485.9114537 163.13117413 -490.90162962 171.25573319 -495.92797852 179.35986328 C-505.98004455 195.56838499 -515.96461782 211.81777597 -525.86499023 228.11938477 C-530.37677755 235.54062426 -534.93661243 242.93128236 -539.52416992 250.3059082 C-543.06043933 255.99699281 -546.52879518 261.72600141 -549.9609375 267.48046875 C-546.36198788 268.66445525 -543.30731499 268.40614404 -539.55932617 268.05908203 C-538.26085251 267.94210968 -536.96237885 267.82513733 -535.6245575 267.70462036 C-534.20932197 267.57020137 -532.79410533 267.4355834 -531.37890625 267.30078125 C-529.92170585 267.1666865 -528.46445494 267.03313966 -527.00715637 266.90011597 C-523.95286209 266.61995169 -520.89901928 266.33541587 -517.84545898 266.04736328 C-513.94569862 265.67951304 -510.04530904 265.31898738 -506.14460278 264.96132088 C-502.40997496 264.61860644 -498.6756743 264.2723904 -494.94140625 263.92578125 C-493.88226045 263.82784964 -493.88226045 263.82784964 -492.80171776 263.72793961 C-490.78454532 263.54074236 -488.76763343 263.35074401 -486.75073242 263.16064453 C-485.60585861 263.05325958 -484.4609848 262.94587463 -483.28141785 262.8352356 C-482.18565933 262.71816254 -481.08990082 262.60108948 -479.9609375 262.48046875 C-478.70956497 262.35803299 -477.45819244 262.23559723 -476.16889954 262.10945129 C-472.72694098 261.80068971 -472.72694098 261.80068971 -470.84375 258.73657227 C-470.23559992 257.53852543 -469.65086404 256.32839951 -469.0859375 255.109375 C-468.40398789 253.79927307 -467.7203384 252.49005484 -467.03515625 251.18164062 C-465.99111602 249.11974682 -464.96564464 247.05284399 -463.97119141 244.96655273 C-462.99417646 242.94438701 -461.95273095 240.96710156 -460.8984375 238.984375 C-460.62596191 238.36349503 -460.35348633 237.74261505 -460.07275391 237.10292053 C-458.89733455 234.96007945 -457.98961453 233.87205922 -455.9609375 232.48046875 C-451.71512243 231.37389654 -447.47700875 230.96819089 -443.11703491 230.64384651 C-440.97333451 230.48140813 -438.83737682 230.27852704 -436.69848633 230.0622406 C-432.10148905 229.6020674 -427.50052936 229.19454456 -422.8984375 228.7890625 C-421.21025645 228.63770927 -419.52210595 228.4860148 -417.83398438 228.33399963 C-413.43780011 227.93878708 -409.04131189 227.54707957 -404.64471436 227.15649414 C-397.58249302 226.52882679 -390.52063205 225.89716894 -383.45901489 225.262743 C-381.00920037 225.04338401 -378.55918061 224.82643959 -376.10913086 224.60972595 C-374.60139168 224.47485197 -373.09366015 224.33989253 -371.5859375 224.20483398 C-370.27882813 224.08873276 -368.97171875 223.97263153 -367.625 223.85301208 C-364.05937366 223.49047724 -360.5089257 222.98732421 -356.9609375 222.48046875 C-356.9609375 231.72046875 -356.9609375 240.96046875 -356.9609375 250.48046875 C-348.44442029 250.48354136 -348.44442029 250.48354136 -340.04248047 249.9296875 C-338.78192841 249.80956299 -337.52137634 249.68943848 -336.22262573 249.56567383 C-334.88278193 249.43320888 -333.54294858 249.30063814 -332.203125 249.16796875 C-330.80498184 249.03303186 -329.40679782 248.89851774 -328.00857544 248.7644043 C-324.36192839 248.4135008 -320.71585811 248.05692824 -317.06988525 247.69909668 C-313.33598951 247.33367457 -309.6015669 246.97372097 -305.8671875 246.61328125 C-298.56458326 245.90763849 -291.26258072 245.1959947 -283.9609375 244.48046875 C-285.14170821 210.86931432 -286.33109681 177.25846972 -287.52800655 143.64788628 C-287.76763319 136.9180065 -288.00689811 130.18811419 -288.24530029 123.45819092 C-288.74537148 109.34266939 -289.24757343 95.22723102 -289.75686073 81.11203861 C-289.97461272 75.07538409 -290.19098164 69.0386876 -290.40393066 63.00186157 C-290.60399988 57.33197549 -290.80791823 51.66224109 -291.01484871 45.99260139 C-291.09006326 43.91353452 -291.1638801 41.83441655 -291.23620415 39.75524712 C-291.33492369 36.92359357 -291.43866997 34.09216762 -291.54370117 31.26074219 C-291.57123348 30.43676595 -291.59876579 29.61278971 -291.62713242 28.76384449 C-291.77540859 24.90777501 -292.04871575 21.23626475 -292.9609375 17.48046875 C-298.65239173 17.38037158 -304.22159773 17.77382353 -309.88769531 18.29077148 Z M-712.35546875 80.4609375 C-727.32529198 97.80977312 -734.23297084 118.65453721 -732.9609375 141.48046875 C-731.32100228 152.39020726 -726.12942523 161.60245565 -717.6015625 168.60546875 C-698.24526612 182.34958452 -674.50993062 183.40101988 -651.62719727 184.5300293 C-643.46874718 184.93667277 -635.33341708 185.43832879 -627.21484375 186.359375 C-625.96131104 186.50060791 -624.70777832 186.64184082 -623.41625977 186.78735352 C-619.81841103 187.50905864 -617.16730784 188.7302641 -613.9609375 190.48046875 C-612.9709375 190.81046875 -611.9809375 191.14046875 -610.9609375 191.48046875 C-608.30363473 196.93493232 -607.77138819 203.64831307 -609.578125 209.46875 C-613.70636702 217.70696747 -622.0557505 221.39411624 -630.3203125 224.3828125 C-636.77267458 226.32821351 -643.30795079 227.45967787 -649.9609375 228.48046875 C-650.77046875 228.61324219 -651.58 228.74601563 -652.4140625 228.8828125 C-664.79030555 230.60698376 -681.61933788 231.34992752 -692.5859375 224.60546875 C-697.4744307 220.23155378 -699.26949458 216.80854247 -700.9609375 210.48046875 C-708.60213565 211.11075243 -716.24299336 211.74502949 -723.88343525 212.38441372 C-727.43116362 212.68117598 -730.97899563 212.97655881 -734.52709961 213.26879883 C-738.60565445 213.60479019 -742.68368842 213.94676337 -746.76171875 214.2890625 C-748.67432243 214.44537392 -748.67432243 214.44537392 -750.62556458 214.60484314 C-751.80656235 214.70487137 -752.98756012 214.8048996 -754.2043457 214.90795898 C-755.76654594 215.03786476 -755.76654594 215.03786476 -757.36030579 215.1703949 C-760.07016863 215.40483049 -760.07016863 215.40483049 -762.9609375 216.48046875 C-768.3192791 230.1350013 -770.01619422 246.23040171 -764.9921875 260.16796875 C-759.73432593 271.82052683 -750.63960122 277.82967236 -739.20654297 282.63916016 C-695.61137969 298.97194257 -634.51075398 287.5306779 -593.0625 269.390625 C-581.61798929 264.17094482 -571.29461061 257.98051236 -561.9609375 249.48046875 C-561.18363281 248.79597656 -560.40632812 248.11148438 -559.60546875 247.40625 C-544.10693181 232.97473798 -536.32467262 212.63502212 -535.5559082 191.67456055 C-535.38649224 179.57469412 -537.42511563 169.03486947 -545.64453125 159.6953125 C-565.97470747 140.25650994 -599.82034334 140.92803735 -626.0871582 139.27148438 C-629.32350621 139.06304243 -632.55806601 138.83510986 -635.79296875 138.60546875 C-636.75459427 138.55116699 -637.71621979 138.49686523 -638.70698547 138.44091797 C-646.50581918 137.875745 -654.27567354 136.22299076 -660.6484375 131.48046875 C-663.06751701 125.95114416 -663.12594604 119.84667132 -661.1484375 114.1328125 C-656.43179135 105.63302309 -646.93169578 101.19339968 -637.9609375 98.48046875 C-621.74133676 94.37267856 -603.04953649 92.39641771 -587.9609375 101.04296875 C-584.54250683 103.55862145 -583.16263521 105.72582658 -581.7109375 109.6953125 C-581.37578125 110.59241943 -581.040625 111.48952637 -580.6953125 112.41381836 C-580.45296875 113.09581299 -580.210625 113.77780762 -579.9609375 114.48046875 C-572.74499806 113.87224235 -565.52982877 113.25560756 -558.31551838 112.62833595 C-554.96531908 112.33730599 -551.61492552 112.04913861 -548.26391602 111.76757812 C-544.40835027 111.4421778 -540.55375944 111.10683085 -536.69921875 110.76953125 C-535.50009354 110.67048492 -534.30096832 110.5714386 -533.06550598 110.46939087 C-531.3843293 110.31946182 -531.3843293 110.31946182 -529.66918945 110.16650391 C-528.68545853 110.08212067 -527.7017276 109.99773743 -526.68818665 109.91079712 C-523.82112184 109.45840746 -521.54761067 108.79792592 -518.9609375 107.48046875 C-517.51720525 104.6205297 -517.51720525 104.6205297 -516.7109375 101.23046875 C-516.39640625 100.1115625 -516.081875 98.99265625 -515.7578125 97.83984375 C-512.71457831 85.01052315 -513.1880293 73.94634811 -519.6484375 62.29296875 C-527.69537379 49.76245968 -541.24902433 44.17067406 -555.12109375 40.3046875 C-566.67302805 37.82507597 -577.81799028 37.07552294 -589.5859375 37.10546875 C-590.39330353 37.10601257 -591.20066956 37.1065564 -592.03250122 37.1071167 C-635.13455588 37.2397433 -681.47123483 48.59625171 -712.35546875 80.4609375 Z M-532.9609375 220.48046875 C-531.9609375 222.48046875 -531.9609375 222.48046875 -531.9609375 222.48046875 Z " fill="#093583" transform="translate(1012.9609375,353.51953125)"/>
<path d="M0 0 C-2.13546209 8.98687436 -4.68488525 17.81080676 -7.40234375 26.63671875 C-7.83696585 28.05646941 -8.27132009 29.47630209 -8.70542908 30.89620972 C-9.8704259 34.70384664 -11.03926745 38.51029247 -12.2090683 42.31645584 C-13.43754934 46.31515989 -14.66314221 50.31474921 -15.88916016 54.31420898 C-17.66157157 60.09487562 -19.43547422 65.8750817 -21.2108345 71.65484333 C-23.89926999 80.40758414 -26.57936906 89.16283145 -29.25325012 97.92002869 C-30.81883334 103.04711978 -32.38771822 108.17319829 -33.95770168 113.29894352 C-35.00837864 116.72956237 -36.05778884 120.16055465 -37.10372925 123.59262085 C-50.92753525 168.93579858 -50.92753525 168.93579858 -59.0625 185.25 C-59.54009766 186.24644531 -60.01769531 187.24289062 -60.50976562 188.26953125 C-77.27074624 222.59709367 -104.53950167 247.9469483 -140.52734375 260.62109375 C-178.5718511 273.4955009 -231.06653399 280.63247246 -268.4375 262.1875 C-274.46462299 259.06912526 -280.01682092 255.65165781 -285 251 C-285.60972656 250.43152344 -286.21945312 249.86304688 -286.84765625 249.27734375 C-299.3681395 236.31657977 -303.38584621 217.8530533 -303.14453125 200.390625 C-302.6904836 189.73891266 -301.08139048 179.59747385 -298.484375 169.26171875 C-298.22439728 168.22699936 -297.96441956 167.19227997 -297.69656372 166.12620544 C-294.44010169 153.46291128 -290.47352267 141.02225885 -286.51125336 128.56604385 C-284.7447039 123.00322951 -282.99624129 117.43467321 -281.24393082 111.86736107 C-280.55992392 109.69494333 -279.87506321 107.52279596 -279.19015503 105.35066223 C-275.85421625 94.76264361 -272.56991233 84.1592976 -269.3125 73.546875 C-268.96703817 72.42164334 -268.96703817 72.42164334 -268.61459732 71.27367973 C-266.37555166 63.97907158 -264.14099744 56.68309411 -261.90969467 49.38611412 C-261.0894631 46.70521304 -260.26762079 44.0248075 -259.44543457 41.34450531 C-258.88370623 39.51095056 -258.32438484 37.67665895 -257.76513672 35.84234619 C-257.42869141 34.74557556 -257.09224609 33.64880493 -256.74560547 32.51879883 C-256.45507294 31.56822098 -256.16454041 30.61764313 -255.86520386 29.63825989 C-255.01362654 27.0415513 -254.0437741 24.52487644 -253 22 C-241.76053166 20.95369544 -230.52079238 19.910356 -219.28069878 18.87078857 C-214.06134509 18.38797025 -208.8420898 17.90413569 -203.62304688 17.41796875 C-198.58528457 16.94872643 -193.54728035 16.48216652 -188.50909805 16.01745605 C-186.58811736 15.83979568 -184.66722541 15.66117312 -182.74642563 15.48156738 C-180.05367334 15.22994632 -177.36062432 14.98176498 -174.66748047 14.734375 C-173.87553787 14.65956909 -173.08359528 14.58476318 -172.26765442 14.50769043 C-168.16151558 14.13432129 -164.12885214 13.92291046 -160 14 C-162.13445824 23.08930556 -164.78257225 31.96457818 -167.62109375 40.85546875 C-168.07862045 42.29846913 -168.53575782 43.741593 -168.99253845 45.18482971 C-169.96538729 48.25696849 -170.94014158 51.32849279 -171.91644287 54.39953613 C-174.50798878 62.55345947 -177.0841251 70.7122583 -179.66015625 78.87109375 C-180.05406555 80.11826361 -180.05406555 80.11826361 -180.45593262 81.39062881 C-185.94599757 98.77755847 -191.35422655 116.18924345 -196.71770096 133.6156044 C-197.37393755 135.74654997 -198.03128042 137.87715137 -198.68893433 140.00765991 C-199.90788078 143.95722825 -201.12234479 147.90815823 -202.3359375 151.859375 C-202.69525864 153.02368546 -203.05457977 154.18799591 -203.42478943 155.3875885 C-203.75173294 156.45561203 -204.07867645 157.52363556 -204.41552734 158.62402344 C-204.69923187 159.54745544 -204.9829364 160.47088745 -205.27523804 161.42230225 C-207.16740872 168.15202092 -208.2717718 174.72972967 -205.6875 181.375 C-202.62849776 186.13344793 -200.51114135 187.46096748 -195 189 C-180.97546147 190.15126809 -167.7243517 188.2988634 -156 180 C-145.19135214 170.63016565 -139.75499692 157.91145447 -135.4140625 144.62890625 C-135.07500381 143.60095444 -134.73594513 142.57300262 -134.38661194 141.51390076 C-129.76313934 127.37428173 -125.46785916 113.13095323 -121.14666367 98.8968277 C-119.94381219 94.93744619 -118.73703394 90.97926205 -117.53051758 87.02099609 C-115.59759545 80.67836076 -113.66623301 74.33525326 -111.73632812 67.99169922 C-108.21714418 56.42491356 -104.69100993 44.86026017 -101.1567688 33.29806519 C-100.20441957 30.18038907 -99.25434863 27.06202499 -98.30444336 23.94360352 C-97.73823011 22.08997241 -97.17191239 20.23637321 -96.60546875 18.3828125 C-96.35238953 17.54996231 -96.0993103 16.71711212 -95.83856201 15.85902405 C-94.11399705 10.2279941 -94.11399705 10.2279941 -93 8 C-90.61593463 7.54660483 -88.32076893 7.22149284 -85.91333008 6.96923828 C-85.19373769 6.887036 -84.4741453 6.80483372 -83.73274708 6.72014046 C-81.48959716 6.46820134 -79.24535485 6.23140465 -77 6 C-75.06318863 5.80008453 -75.06318863 5.80008453 -73.08724976 5.59613037 C-69.18853949 5.21120675 -65.28823194 4.84722923 -61.38671875 4.4921875 C-59.95619425 4.36061079 -58.52567787 4.22894577 -57.09516907 4.09719849 C-54.1299384 3.8248108 -51.16452411 3.55453765 -48.19897461 3.28564453 C-44.42896406 2.94348304 -40.65964299 2.59426624 -36.89044476 2.24328423 C-33.94882572 1.97044821 -31.00680022 1.70220945 -28.06464577 1.435215 C-26.67525497 1.30843651 -25.28600569 1.18009554 -23.89691734 1.05004501 C-15.90694671 0.30415041 -8.02620365 -0.1863727 0 0 Z M-36.9765625 11.3125 C-38.39712715 11.44743043 -39.81773138 11.5819447 -41.2383728 11.71606445 C-44.94419047 12.06703299 -48.64944967 12.42358366 -52.35461426 12.78137207 C-56.14884364 13.14673929 -59.94358338 13.50672449 -63.73828125 13.8671875 C-71.1593587 14.57291262 -78.57985344 15.28454646 -86 16 C-88.07123707 21.3923284 -89.93364891 26.79413679 -91.61279297 32.31982422 C-91.85569565 33.11184235 -92.09859833 33.90386047 -92.34886169 34.71987915 C-93.14897566 37.33077237 -93.94556387 39.94272742 -94.7421875 42.5546875 C-95.31186593 44.41569157 -95.88178686 46.27662142 -96.45193481 48.13748169 C-97.9582643 53.0558774 -99.46170759 57.97515039 -100.9644165 62.89465332 C-102.44364561 67.73618138 -103.92492351 72.57708208 -105.40625 77.41796875 C-105.69668308 78.36737461 -105.98711617 79.31678047 -106.28635025 80.29495621 C-107.75612498 85.09869296 -109.22770657 89.90186527 -110.70257568 94.70404053 C-111.29363844 96.62917286 -111.88464191 98.5543234 -112.47558594 100.47949219 C-112.91284815 101.9038238 -112.91284815 101.9038238 -113.35894394 103.35692978 C-115.13547806 109.15275502 -116.89166488 114.95432289 -118.63246727 120.76097679 C-119.76995256 124.54907467 -120.9175547 128.33406737 -122.06665421 132.11865616 C-122.59887859 133.8804313 -123.12661183 135.64357134 -123.64919662 137.40822983 C-130.20447861 159.53000788 -138.47239503 181.0971598 -159.75 192.75 C-172.66286525 198.74172767 -189.5361051 200.79783236 -203.3125 196.4375 C-209.43957298 193.73549887 -212.75462472 189.88700634 -215.375 183.8125 C-216.72129766 175.60008424 -216.35080769 168.39333113 -214.18359375 160.33984375 C-213.97088837 159.54229172 -213.75818298 158.74473969 -213.53903198 157.92301941 C-209.61308944 143.59724906 -204.93432022 129.47485045 -200.42492676 115.32478333 C-199.07790713 111.09427731 -197.73625328 106.8620714 -196.39453125 102.62988281 C-195.85504388 100.92831346 -195.31555414 99.22674485 -194.77606201 97.525177 C-194.50979759 96.6853339 -194.24353317 95.8454908 -193.96920013 94.98019791 C-193.16638232 92.44872121 -192.36296267 89.91743623 -191.55938721 87.38619995 C-186.99954748 73.01990684 -182.48659675 58.63934946 -178 44.25 C-177.6833136 43.23491364 -177.3666272 42.21982727 -177.04034424 41.17398071 C-175.35855195 35.78317534 -173.67828397 30.3918986 -172 25 C-175.63641158 23.79713866 -178.75290707 24.0786534 -182.54101562 24.42138672 C-183.18866379 24.47815582 -183.83631195 24.53492493 -184.50358582 24.59341431 C-186.63845211 24.78227594 -188.77229629 24.98079948 -190.90625 25.1796875 C-192.39306237 25.31373961 -193.87992029 25.44728741 -195.36682129 25.58035278 C-198.48078195 25.86044461 -201.59428705 26.14503465 -204.70751953 26.43310547 C-208.69494195 26.80193263 -212.68308781 27.16206682 -216.67157745 27.51914787 C-219.74130811 27.79451397 -222.81072662 28.07323323 -225.88005066 28.35309219 C-227.35037013 28.48699001 -228.82075779 28.62014132 -230.29121399 28.75252914 C-232.34744787 28.93841566 -234.40324966 29.1285061 -236.45898438 29.31982422 C-237.62828491 29.42720917 -238.79758545 29.53459412 -240.00231934 29.64523315 C-240.99155396 29.76230621 -241.98078857 29.87937927 -243 30 C-243.7523291 30.06921661 -244.5046582 30.13843323 -245.27978516 30.20974731 C-247.24196332 30.89487386 -247.24196332 30.89487386 -248.14367676 33.2644043 C-248.59946106 34.77901245 -248.59946106 34.77901245 -249.06445312 36.32421875 C-249.42075806 37.47814621 -249.77706299 38.63207367 -250.14416504 39.82096863 C-250.52345867 41.10973436 -250.90247793 42.39858088 -251.28125 43.6875 C-251.69035129 45.03364542 -252.10099146 46.37932399 -252.51306152 47.7245636 C-253.62851537 51.38067863 -254.72334538 55.04268254 -255.8145752 58.70608902 C-256.96119408 62.54347809 -258.12564381 66.37544121 -259.2890625 70.20776367 C-260.73447994 74.97249461 -262.17815909 79.7377206 -263.61376953 84.50541687 C-266.67693843 94.6740937 -269.79346883 104.82456189 -272.96360779 114.960392 C-273.65273675 117.16454426 -274.34037741 119.36915495 -275.02746582 121.57394409 C-275.2510955 122.2915132 -275.47472519 123.0090823 -275.70513153 123.74839592 C-276.15090352 125.17889512 -276.59664861 126.6094027 -277.04236603 128.0399189 C-278.11525722 131.48159344 -279.19096565 134.92233297 -280.27319336 138.36108398 C-295.60388379 184.6096201 -295.60388379 184.6096201 -287.9375 231.375 C-279.83994544 246.26569134 -266.53020727 254.22465498 -250.671875 259.00390625 C-245.47723635 260.41309014 -240.34033099 261.35945821 -235 262 C-234.16855469 262.11085938 -233.33710937 262.22171875 -232.48046875 262.3359375 C-190.94078177 267.05780668 -140.8686094 258.83981098 -107 233 C-67.12232567 199.5476287 -54.63292659 150.85966782 -40 103 C-39.64558838 101.84163635 -39.29117676 100.68327271 -38.92602539 99.48980713 C-29.81481567 69.70052602 -20.81620788 39.87795688 -12 10 C-20.38947485 9.76693762 -28.63400498 10.49983134 -36.9765625 11.3125 Z " fill="#093583" transform="translate(1574,285)"/>
<path d="M0 0 C-1.55392302 7.59268826 -3.7105493 14.92489833 -5.9921875 22.328125 C-6.3836082 23.6068223 -6.77472561 24.88561247 -7.16555786 26.16448975 C-8.1900969 29.51405996 -9.21874383 32.86235447 -10.24829102 36.21038818 C-11.28394116 39.5808908 -12.31561352 42.95261018 -13.34765625 46.32421875 C-17.15043557 58.7428197 -17.15043557 58.7428197 -18.965271 64.61730957 C-19.6844612 66.96845447 -20.38972309 69.32388676 -21.08404541 71.68249512 C-21.60729401 73.44405945 -21.60729401 73.44405945 -22.14111328 75.24121094 C-22.45074005 76.29951111 -22.76036682 77.35781128 -23.07937622 78.44818115 C-24 81 -24 81 -26 83 C-28.45355532 83.39261524 -30.8246082 83.66766898 -33.29541016 83.86962891 C-34.04672714 83.93819595 -34.79804413 84.006763 -35.5721283 84.07740784 C-38.06042428 84.30234795 -40.54964001 84.51448452 -43.0390625 84.7265625 C-44.7626331 84.87986041 -46.48613312 85.03395374 -48.20956421 85.18881226 C-52.7495689 85.5945922 -57.29045436 85.98953287 -61.831604 86.38226318 C-66.46383443 86.78478859 -71.09515541 87.19750341 -75.7265625 87.609375 C-84.81684485 88.41625446 -93.90808968 89.21169179 -103 90 C-104.95163076 94.41304434 -106.64404244 98.75618223 -108.05517578 103.37817383 C-108.43563553 104.61748657 -108.81609528 105.85679932 -109.20808411 107.13366699 C-109.62056983 108.49143191 -110.03297659 109.84922082 -110.4453125 111.20703125 C-110.888273 112.65533456 -111.33157581 114.10353321 -111.77519226 115.55163574 C-112.97850588 119.48316958 -114.17693976 123.4161758 -115.37451553 127.3494606 C-116.63572129 131.48865283 -117.90152209 135.62643954 -119.16674805 139.7644043 C-122.16414479 149.57105211 -125.15430347 159.37990021 -128.14337921 169.18908691 C-129.59437984 173.95039635 -131.04600445 178.71151554 -132.49755859 183.47265625 C-133.37728889 186.3583578 -134.25700515 189.24406364 -135.13671875 192.12977028 C-135.71778447 194.0358184 -136.29885943 195.9418637 -136.87994385 197.84790611 C-139.68648244 207.05389584 -142.492663 216.25999225 -145.29451656 225.46740913 C-146.33310285 228.88014351 -147.37225524 232.29270538 -148.41147804 235.70524597 C-148.8942293 237.29105454 -149.37669785 238.8769492 -149.85886192 240.4629364 C-150.51953905 242.63607034 -151.18117475 244.8089103 -151.84301758 246.98168945 C-152.21332596 248.19887161 -152.58363434 249.41605377 -152.96516418 250.67012024 C-153.93625815 253.79489239 -154.95285967 256.89998371 -156 260 C-166.53384835 261.37300416 -177.0677434 262.54712584 -187.6484375 263.5078125 C-189.08135892 263.639375 -190.51427091 263.77104033 -191.94717407 263.90280151 C-194.91660326 264.17516533 -197.88621219 264.44545628 -200.85595703 264.71435547 C-204.63500307 265.0568264 -208.4134048 265.40592719 -212.19168663 265.75671577 C-215.13758169 266.02924892 -218.0838476 266.29759323 -221.03023148 266.564785 C-222.42322474 266.69172544 -223.81609043 266.82007519 -225.20881271 266.94995499 C-232.82630324 267.65839469 -240.34720239 268.20067716 -248 268 C-246.39429789 258.61633071 -243.55805986 249.6796904 -240.71484375 240.6171875 C-240.18032587 238.90001785 -239.64630526 237.18269334 -239.11274719 235.46522522 C-237.98004136 231.82205743 -236.84443642 228.17981223 -235.7064209 224.53829956 C-233.03234179 215.98079999 -230.37310536 207.41868463 -227.71310043 198.85680199 C-227.11979445 196.94735178 -226.52630085 195.03795987 -225.932621 193.12862587 C-219.94965676 173.88656571 -214.07429172 154.61353466 -208.25366211 135.32177734 C-204.58995557 123.18582677 -200.8534385 111.07713171 -197 99 C-209.8560623 99.87521553 -222.69766679 100.86589735 -235.53125 102.0234375 C-236.5305806 102.11347046 -237.52991119 102.20350342 -238.55952454 102.29626465 C-243.59386793 102.75122674 -248.62762707 103.2119389 -253.66088867 103.67871094 C-255.54865935 103.85097739 -257.4364358 104.02318061 -259.32421875 104.1953125 C-260.18168701 104.27647308 -261.03915527 104.35763367 -261.92260742 104.44125366 C-266.97264759 104.89838876 -271.92909706 105.07511368 -277 105 C-275.66940435 97.52735572 -273.73596655 90.3509834 -271.515625 83.09765625 C-271.17754822 81.98047714 -270.83947144 80.86329803 -270.4911499 79.71226501 C-269.41514769 76.16099677 -268.33255888 72.61177426 -267.25 69.0625 C-266.53865655 66.7156178 -265.82771576 64.36861351 -265.1171875 62.02148438 C-261.16460931 48.98640798 -257.13238395 35.97912003 -253 23 C-227.92884892 20.1355076 -202.79705388 17.92330398 -177.66636658 15.65723634 C-171.55967176 15.10618147 -165.45319243 14.55274773 -159.34667969 13.99967957 C-149.12661101 13.07441725 -138.90637588 12.15101189 -128.68603516 11.22875977 C-116.87240185 10.16271121 -105.0590397 9.09369664 -93.24581432 8.02313787 C-81.83784439 6.98936958 -70.42969241 5.95762397 -59.02145386 4.92682457 C-54.17937341 4.48928164 -49.33735742 4.05103492 -44.49539185 3.61222267 C-38.81538695 3.09755628 -33.13522501 2.58465928 -27.45493507 2.07314873 C-25.36988583 1.88510262 -23.28489179 1.69644317 -21.19995689 1.50713348 C-18.36099027 1.24946056 -15.5218341 0.99398805 -12.68261719 0.73908997 C-11.85346833 0.66331736 -11.02431948 0.58754475 -10.1700449 0.50947601 C-6.75909862 0.20531467 -3.42786306 0 0 0 Z M-24.13041687 10.67698669 C-25.07628074 10.76188687 -26.02214461 10.84678704 -26.99667102 10.93425995 C-30.18024184 11.22157162 -33.36290678 11.51792608 -36.5456543 11.81420898 C-38.82188063 12.02149748 -41.09815759 12.22823075 -43.3744812 12.43444824 C-49.56678145 12.99701843 -55.7583418 13.56738738 -61.94980216 14.139117 C-68.4156534 14.73486051 -74.88215224 15.32348768 -81.34858704 15.91285706 C-92.20615491 16.90341909 -103.06331043 17.89839101 -113.92016602 18.89672852 C-125.10349055 19.92507418 -136.28705272 20.95077184 -147.47094727 21.97290039 C-148.16015507 22.03589002 -148.84936288 22.09887965 -149.55945577 22.16377806 C-153.01696037 22.4797576 -156.47446972 22.79568499 -159.93198144 23.11158645 C-188.62206348 25.73297283 -217.31129399 28.36359869 -246 31 C-247.26818464 34.94824629 -248.53462541 38.89704994 -249.80078125 42.84594727 C-250.33306335 44.50299557 -250.33306335 44.50299557 -250.87609863 46.19351959 C-253.79214839 55.29267097 -256.59279497 64.42190874 -259.30322266 73.58422852 C-260.02489383 76.02157555 -260.75253494 78.4570949 -261.48046875 80.89257812 C-261.94565651 82.45823116 -262.41051476 84.02398215 -262.875 85.58984375 C-263.09051514 86.31042465 -263.30603027 87.03100555 -263.52807617 87.77342224 C-264.62376789 91.3263347 -264.62376789 91.3263347 -265 95 C-250.66338746 94.35947117 -236.39144589 93.13928139 -222.10083008 91.84326172 C-218.281741 91.49721292 -214.46220331 91.15648146 -210.64257812 90.81640625 C-208.19528467 90.5966639 -205.74801802 90.37662274 -203.30078125 90.15625 C-201.60227776 90.00464417 -201.60227776 90.00464417 -199.86946106 89.84997559 C-194.55275329 89.36560548 -189.27495233 88.82611214 -184 88 C-184.62962646 89.85189941 -184.62962646 89.85189941 -185.27197266 91.74121094 C-189.54560797 104.38985664 -193.52625148 117.10858218 -197.36688232 129.89465332 C-199.17456333 135.91120933 -200.99232838 141.92471262 -202.8125 147.9375 C-203.1078319 148.9134399 -203.1078319 148.9134399 -203.4091301 149.90909576 C-207.08126973 162.03687864 -210.81522583 174.14524866 -214.5625 186.25 C-214.84383411 187.15916924 -215.12516823 188.06833847 -215.41502762 189.00505829 C-218.23523754 198.11893976 -221.05812333 207.23197801 -223.88904953 216.34253693 C-224.95470585 219.77432801 -226.01773844 223.2069282 -227.0802002 226.63970947 C-227.57575511 228.23863649 -228.07247947 229.83720163 -228.57049561 231.43536377 C-231.31090659 240.23055888 -233.90120375 249.02435718 -236 258 C-227.97544686 258.18438418 -220.10193436 257.46190766 -212.12109375 256.6875 C-210.6990959 256.55261094 -209.27706253 256.41809572 -207.85499573 256.28393555 C-204.14098567 255.93254999 -200.42747489 255.57614056 -196.71405029 255.21862793 C-192.91317491 254.85361183 -189.11184215 254.49342477 -185.31054688 254.1328125 C-177.87324594 253.42655961 -170.43646658 252.71499052 -163 252 C-150.79990629 213.22754296 -138.87545418 174.37176566 -126.98910713 135.50225258 C-125.15637255 129.50964642 -123.32036381 123.51804831 -121.48381042 117.52661133 C-120.1438637 113.15327844 -118.80631454 108.77921596 -117.46975708 104.40484619 C-116.86981079 102.44261478 -116.2689751 100.48065505 -115.66720581 98.51898193 C-114.86013954 95.88714808 -114.05650645 93.25429237 -113.25390625 90.62109375 C-112.90418259 89.48475243 -112.90418259 89.48475243 -112.5473938 88.32545471 C-111.39799255 84.72773492 -111.39799255 84.72773492 -111 81 C-109.95690674 80.95681641 -108.91381348 80.91363281 -107.83911133 80.86914062 C-94.32176121 80.25842938 -80.86941857 79.09099068 -67.39770508 77.84326172 C-63.64900133 77.49643817 -59.89975203 77.15603909 -56.15039062 76.81640625 C-53.74996583 76.59672726 -51.34957391 76.37668856 -48.94921875 76.15625 C-47.83673264 76.05517944 -46.72424652 75.95410889 -45.57804871 75.84997559 C-44.53868668 75.75317505 -43.49932465 75.65637451 -42.4284668 75.55664062 C-41.52202927 75.47305298 -40.61559174 75.38946533 -39.6816864 75.30334473 C-36.77390581 74.97442487 -33.8865089 74.48108482 -31 74 C-24.73 53.21 -18.46 32.42 -12 11 C-16.12039064 9.62653645 -19.88033048 10.27291307 -24.13041687 10.67698669 Z " fill="#093583" transform="translate(1313,308)"/>
<path d="M0 0 C10.56 0 21.12 0 32 0 C32.78246094 2.50335938 33.56492187 5.00671875 34.37109375 7.5859375 C35.12858094 10.00533599 35.88664963 12.42455155 36.64477539 14.84375 C37.17207735 16.52747859 37.69877286 18.21139723 38.22485352 19.89550781 C38.98034542 22.31365156 39.73800278 24.73110749 40.49609375 27.1484375 C40.73154404 27.9036972 40.96699432 28.65895691 41.20957947 29.43710327 C42.40304142 33.29712717 42.40304142 33.29712717 44 37 C44.32798584 35.95021973 44.65597168 34.90043945 44.99389648 33.81884766 C46.20914704 29.93077905 47.42662149 26.04340985 48.64477539 22.15625 C49.17207735 20.47252141 49.69877286 18.78860277 50.22485352 17.10449219 C50.98034542 14.68634844 51.73800278 12.26889251 52.49609375 9.8515625 C52.73154404 9.0963028 52.96699432 8.34104309 53.20957947 7.56289673 C54.88612829 2.22774341 54.88612829 2.22774341 56 0 C66.23 0 76.46 0 87 0 C87 23.76 87 47.52 87 72 C80.4 72 73.8 72 67 72 C66.67 57.81 66.34 43.62 66 29 C61.71 43.19 57.42 57.38 53 72 C47.06 72 41.12 72 35 72 C29.89735673 57.11082816 25.33594412 42.1315601 21 27 C20.67 41.85 20.34 56.7 20 72 C13.4 72 6.8 72 0 72 C0 48.24 0 24.48 0 0 Z " fill="#093583" transform="translate(1403,34)"/>
<path d="M0 0 C21.45 0 42.9 0 65 0 C65 5.94 65 11.88 65 18 C57.74 18 50.48 18 43 18 C43 35.82 43 53.64 43 72 C35.74 72 28.48 72 21 72 C21 54.18 21 36.36 21 18 C14.07 18 7.14 18 0 18 C0 12.06 0 6.12 0 0 Z " fill="#093583" transform="translate(1333,34)"/>
<path d="M0 0 C0 24.42 0 48.84 0 74 C-18.42573938 76.30321742 -18.42573938 76.30321742 -27.046875 77.0703125 C-27.99137512 77.15626678 -28.93587524 77.24222107 -29.90899658 77.33078003 C-31.86792416 77.5084451 -33.82697011 77.68480997 -35.78613281 77.85986328 C-38.78743509 78.12834881 -41.78825865 78.40178635 -44.7890625 78.67578125 C-46.70830736 78.849246 -48.62757729 79.02243359 -50.546875 79.1953125 C-51.43848328 79.27653351 -52.33009155 79.35775452 -53.24871826 79.44143677 C-54.4921701 79.5518782 -54.4921701 79.5518782 -55.76074219 79.66455078 C-56.84751251 79.76209152 -56.84751251 79.76209152 -57.95623779 79.86160278 C-59.96674892 79.99774834 -61.98488447 80 -64 80 C-63.36154918 76.90603602 -62.3103907 74.52045568 -60.734375 71.7890625 C-60.26362549 70.96857422 -59.79287598 70.14808594 -59.30786133 69.30273438 C-58.79376709 68.41908203 -58.27967285 67.53542969 -57.75 66.625 C-57.21205811 65.69236328 -56.67411621 64.75972656 -56.11987305 63.79882812 C-51.33459997 55.52384599 -46.47113071 47.29513504 -41.59375 39.07421875 C-38.87112599 34.48095359 -36.16605933 29.87768432 -33.46875 25.26953125 C-33.08248947 24.6097226 -32.69622894 23.94991394 -32.29826355 23.27011108 C-30.75565642 20.63446386 -29.21338571 17.99862243 -27.67276001 15.36181641 C-26.60159366 13.52853557 -25.52937867 11.69587141 -24.45703125 9.86328125 C-23.83803955 8.80407471 -23.21904785 7.74486816 -22.58129883 6.65356445 C-21.43931948 4.73721837 -20.23742899 2.85614349 -19 1 C-16.93359375 0.48828125 -16.93359375 0.48828125 -14.4375 0.3125 C-13.63183594 0.24675781 -12.82617188 0.18101562 -11.99609375 0.11328125 C-8.00007282 -0.03780689 -3.9988762 0 0 0 Z M-14 10 C-16.00832173 12.23899373 -16.00832173 12.23899373 -17.609375 15.32421875 C-17.93392166 15.88988052 -18.25846832 16.4555423 -18.59284973 17.03834534 C-19.6628254 18.91200296 -20.70601805 20.79925542 -21.75 22.6875 C-22.48756548 23.98970549 -23.22709513 25.29080028 -23.96850586 26.59082031 C-25.5220741 29.31798054 -27.0668611 32.04986665 -28.60693359 34.78466797 C-30.98956631 39.00007628 -33.43282607 43.17803772 -35.89453125 47.34765625 C-36.4856218 48.34928047 -36.4856218 48.34928047 -37.08865356 49.37113953 C-38.24606403 51.33107831 -39.40425151 53.29055637 -40.5625 55.25 C-42.00461149 57.69077793 -43.44326127 60.13353874 -44.87890625 62.578125 C-45.4829126 63.60325195 -46.08691895 64.62837891 -46.70922852 65.68457031 C-48.08115283 67.70375694 -48.08115283 67.70375694 -48 69 C-39.54184463 69.26938389 -31.2742916 68.42448323 -22.875 67.5 C-18.29625 67.005 -13.7175 66.51 -9 66 C-9 47.52 -9 29.04 -9 10 C-10.65 10 -12.3 10 -14 10 Z " fill="#093583" transform="translate(656,448)"/>
<path d="M0 0 C0.81919922 -0.02602295 1.63839844 -0.0520459 2.48242188 -0.07885742 C7.80565809 -0.09503239 10.7613328 0.87631452 15 4.375 C18.74614877 8.63785894 19.31002491 12.47121735 19.203125 17.9765625 C18.59675984 25.13633572 15.46715871 29.46760587 10.5234375 34.515625 C3.8851004 39.40703128 -3.04743094 41.06257075 -11.125 41.875 C-12.13747803 41.98755127 -13.14995605 42.10010254 -14.19311523 42.21606445 C-33.75653369 44.299882 -53.39235996 45.77554834 -73 47.375 C-71.8649838 41.25574389 -70.52169501 35.32307094 -68.6171875 29.3984375 C-68.28849167 28.35425156 -68.28849167 28.35425156 -67.95315552 27.28897095 C-67.26531834 25.10773395 -66.57031965 22.9288618 -65.875 20.75 C-65.40186338 19.2540581 -64.92920341 17.75796535 -64.45703125 16.26171875 C-63.31017221 12.63105108 -62.15689335 9.00248213 -61 5.375 C-51.66911266 4.35145355 -42.33541683 3.35631459 -33 2.375 C-31.95618164 2.26333496 -30.91236328 2.15166992 -29.83691406 2.03662109 C-19.90213258 0.98476226 -9.99282317 0.17187803 0 0 Z M-33.5625 11.375 C-35.55656874 11.5684508 -37.55070922 11.76116346 -39.54492188 11.953125 C-44.36414799 12.41860696 -49.18230243 12.89396587 -54 13.375 C-55.19948775 16.99614543 -56.38253505 20.6224506 -57.5625 24.25 C-57.90474609 25.28253906 -58.24699219 26.31507813 -58.59960938 27.37890625 C-58.91865234 28.36503906 -59.23769531 29.35117187 -59.56640625 30.3671875 C-59.86490479 31.27839355 -60.16340332 32.18959961 -60.47094727 33.12841797 C-61.25745684 35.39369352 -61.25745684 35.39369352 -60 37.375 C-52.61537625 36.73310734 -45.23241598 36.07413771 -37.8503418 35.40356445 C-35.34157435 35.17767028 -32.8324582 34.95561317 -30.32299805 34.73754883 C-26.70521988 34.42249138 -23.08894184 34.09341959 -19.47265625 33.76171875 C-18.35979752 33.66783371 -17.24693878 33.57394867 -16.10035706 33.47721863 C-7.73639857 32.68944735 0.88715952 31.66762991 7 25.375 C9.56214452 21.31090868 10.73118225 18.17991194 10 13.375 C8.48632714 11.07601458 8.48632714 11.07601458 6 9.375 C3.38890249 9.01206456 1.25902682 8.90233501 -1.33984375 9 C-2.07694077 9.01434082 -2.81403778 9.02868164 -3.57347107 9.04345703 C-13.60149131 9.32313351 -23.58623057 10.37678686 -33.5625 11.375 Z " fill="#093583" transform="translate(909,484.625)"/>
<path d="M0 0 C1.14961967 -0.02634521 1.14961967 -0.02634521 2.32246399 -0.05322266 C7.1072927 -0.047855 10.36162284 0.78999828 14.42578125 3.3125 C17.93317207 7.18272435 18.80607293 10.85297837 18.69140625 16.0703125 C17.81476183 23.47022278 13.91234697 28.87052134 8.19883728 33.46673584 C-0.22261109 39.07210674 -10.88612255 40.01908982 -20.734375 40.796875 C-21.92727646 40.90219543 -23.12017792 41.00751587 -24.34922791 41.11602783 C-28.11072188 41.44476717 -31.87353692 41.75375336 -35.63671875 42.0625 C-38.19346882 42.28389592 -40.75011101 42.50654153 -43.30664062 42.73046875 C-47.96302403 43.13336044 -52.61956889 43.53342945 -57.27758789 43.91699219 C-58.20656387 43.99375183 -59.13553986 44.07051147 -60.09266663 44.14959717 C-62.2492246 44.29116558 -64.4130191 44.3125 -66.57421875 44.3125 C-63.52216468 30.6585739 -59.12380245 17.53079559 -54.57421875 4.3125 C-48.65691297 3.73116694 -42.73858235 3.16216428 -36.8190918 2.60351562 C-34.81455203 2.41271379 -32.81030432 2.2188126 -30.80639648 2.02148438 C-20.54769558 1.01335934 -10.31272678 0.12351405 0 0 Z M-27.82421875 10.75 C-28.93121628 10.85095474 -28.93121628 10.85095474 -30.06057739 10.95394897 C-39.36050764 11.80662809 -39.36050764 11.80662809 -48.57421875 13.3125 C-50.55421875 20.2425 -52.53421875 27.1725 -54.57421875 34.3125 C-48.2051381 33.80779007 -41.83729931 33.29642265 -35.47021484 32.76831055 C-33.30776892 32.59093123 -31.14500672 32.41736219 -28.98193359 32.24780273 C-25.85812259 32.00224728 -22.73573663 31.74263832 -19.61328125 31.48046875 C-18.65870026 31.40845749 -17.70411926 31.33644623 -16.72061157 31.26225281 C-8.58602369 30.55631982 0.57005726 29.52311635 6.42578125 23.3125 C8.63686801 19.92216697 9.47265523 18.12498234 9.23828125 14.0625 C8.63015077 11.19835489 8.63015077 11.19835489 6.42578125 9.3125 C-4.87570168 8.07815364 -16.54994054 9.71894569 -27.82421875 10.75 Z " fill="#093583" transform="translate(926.57421875,408.6875)"/>
</svg>
