<?xml version="1.0" encoding="UTF-8"?>
<svg version="1.1" xmlns="http://www.w3.org/2000/svg" width="1321" height="541">
<path d="M0 0 C0.93512704 -0.00228418 1.87025408 -0.00456837 2.8337183 -0.00692177 C16.76495746 0.09311812 30.73950795 2.78431422 41.43579102 12.37646484 C49.21999696 20.92196232 50.82500409 31.39468149 50.70922852 42.49755859 C49.78511759 58.66949979 42.03363285 71.37360364 30.49829102 82.18896484 C27.28687369 84.74611924 23.97476727 87.01085843 20.49829102 89.18896484 C19.28785926 89.99833538 18.07916129 90.81031377 16.87329102 91.62646484 C16.08954102 92.14208984 15.30579102 92.65771484 14.49829102 93.18896484 C14.99458008 93.52927734 15.49086914 93.86958984 16.00219727 94.22021484 C25.27761581 100.83797077 31.5293025 107.65465344 33.49829102 119.18896484 C34.56315537 131.50597355 34.64887292 143.76111125 29.49829102 155.18896484 C28.87954102 156.59275391 28.87954102 156.59275391 28.24829102 158.02490234 C18.92598982 176.93434285 0.34535139 188.2213137 -18.94018555 195.05273438 C-41.25725935 202.42075933 -64.45909489 204.83980138 -87.7615273 206.82055521 C-91.23991668 207.11841303 -94.71728971 207.42774447 -98.19480896 207.73556519 C-104.84980154 208.3229047 -111.50563645 208.90005262 -118.16185075 209.47336233 C-125.79341077 210.13112798 -133.42397926 210.80007149 -141.05453622 211.46935558 C-159.20205245 213.06048081 -177.35150429 214.62884289 -195.50170898 216.18896484 C-196.67665672 216.29001022 -197.85160446 216.3910556 -199.06215668 216.49516296 C-221.53917066 218.42773865 -244.01828855 220.33231151 -266.50170898 222.18896484 C-266.50170898 214.59896484 -266.50170898 207.00896484 -266.50170898 199.18896484 C-275.16864448 199.95060674 -283.83532972 200.71495387 -292.50160599 201.48406124 C-296.52574459 201.84108316 -300.54998063 202.19692019 -304.57446289 202.55004883 C-308.45856155 202.89090344 -312.34237309 203.23487113 -316.22600555 203.58099556 C-317.70745806 203.71247747 -319.18901045 203.84283887 -320.67066193 203.97205925 C-322.74645608 204.15329021 -324.82185882 204.33850788 -326.8972168 204.5246582 C-328.07858215 204.62902695 -329.25994751 204.73339569 -330.47711182 204.84092712 C-334.05423074 205.24328764 -334.05423074 205.24328764 -337.50170898 206.18896484 C-339.09096099 208.42612992 -339.09096099 208.42612992 -340.39233398 211.24755859 C-340.93889648 212.27300781 -341.48545898 213.29845703 -342.04858398 214.35498047 C-343.17255556 216.5139855 -344.26211583 218.69130113 -345.31420898 220.88623047 C-347.75303869 225.34156959 -349.62190861 228.52298188 -354.53930664 230.26513672 C-357.98725542 230.72184317 -361.3405285 230.9497833 -364.81225586 231.06509399 C-369.06071376 231.2607695 -373.28169002 231.7099694 -377.51367188 232.12309265 C-382.51049818 232.60664777 -387.51128635 233.04008177 -392.51245117 233.47607422 C-396.38957516 233.81508986 -400.26594692 234.16194837 -404.14233398 234.50927734 C-406.63447986 234.72850101 -409.12666605 234.94726709 -411.61889648 235.16552734 C-413.33639603 235.32016953 -413.33639603 235.32016953 -415.08859253 235.47793579 C-421.57961487 236.03624068 -427.98692068 236.32409979 -434.50170898 236.18896484 C-432.91638089 231.63332423 -430.51167817 227.87420716 -427.87670898 223.87646484 C-427.24635742 222.90870117 -427.24635742 222.90870117 -426.60327148 221.92138672 C-425.57332658 220.3413576 -424.53805271 218.76480437 -423.50170898 217.18896484 C-424.0237793 217.58728516 -424.54584961 217.98560547 -425.08374023 218.39599609 C-449.29643125 236.35015631 -474.99390017 244.15362277 -504.50170898 249.18896484 C-505.27675781 249.32318848 -506.05180664 249.45741211 -506.8503418 249.59570312 C-534.58191379 254.1200601 -571.03213661 255.79886446 -595.50170898 240.18896484 C-604.41078671 233.4178509 -608.25856194 226.067022 -610.50170898 215.18896484 C-611.74116498 202.98720913 -609.54480849 190.37148983 -604.50170898 179.18896484 C-601.99212723 177.93417397 -599.9544628 177.862229 -597.15332031 177.61645508 C-596.03488235 177.51642685 -594.9164444 177.41639862 -593.76411438 177.31333923 C-591.94232918 177.15702782 -591.94232918 177.15702782 -590.08374023 176.99755859 C-588.83799728 176.88799332 -587.59225433 176.77842804 -586.3087616 176.6655426 C-583.66676576 176.43415066 -581.02468839 176.20437396 -578.38232422 175.97729492 C-575.01065485 175.68738076 -571.63957403 175.39119096 -568.26863575 175.09290981 C-565.04060883 174.80800232 -561.81216227 174.52794787 -558.58374023 174.24755859 C-556.77713676 174.08821083 -556.77713676 174.08821083 -554.93403625 173.92564392 C-549.43665341 173.45609233 -544.01958901 173.0528635 -538.50170898 173.18896484 C-538.57131836 173.86443359 -538.64092773 174.53990234 -538.71264648 175.23583984 C-538.87909803 177.97832719 -538.89110026 180.46750493 -538.50170898 183.18896484 C-534.10146137 187.94598929 -527.72811842 188.71001027 -521.50170898 189.18896484 C-512.60684688 189.26925949 -504.05215236 188.34407146 -495.37670898 186.37646484 C-494.6907666 186.2235498 -494.00482422 186.07063477 -493.2980957 185.91308594 C-488.43364241 184.70740752 -484.75721572 182.71998319 -480.50170898 180.18896484 C-479.84170898 180.18896484 -479.18170898 180.18896484 -478.50170898 180.18896484 C-478.17170898 177.87896484 -477.84170898 175.56896484 -477.50170898 173.18896484 C-480.81873573 170.23423471 -483.37413677 169.63194684 -487.75170898 169.12646484 C-488.41428711 169.04904053 -489.07686523 168.97161621 -489.75952148 168.8918457 C-496.94378397 168.12199232 -504.15946126 167.78111103 -511.37106323 167.3729248 C-532.75175039 166.15409365 -553.24502394 164.456345 -570.18920898 149.87646484 C-578.87502774 139.78213494 -582.12310195 130.23040696 -581.78686523 116.86865234 C-580.30776303 97.78215542 -572.77806279 80.03095193 -558.57592773 66.88818359 C-525.13113147 39.48990417 -479.54143943 29.83441396 -437.06420898 33.93896484 C-417.78788878 36.03229479 -400.65580561 41.69161515 -388.06420898 57.18896484 C-382.19553305 68.45682265 -381.62974793 80.7426429 -385.19897461 92.8918457 C-386.20923929 96.03654926 -387.2971291 99.11181078 -388.50170898 102.18896484 C-388.75020599 102.89804993 -388.998703 103.60713501 -389.25473022 104.33770752 C-390.50170898 106.18896484 -390.50170898 106.18896484 -392.81436157 106.85980225 C-393.78062469 106.93974426 -394.74688782 107.01968628 -395.74243164 107.10205078 C-396.83762115 107.20185242 -397.93281067 107.30165405 -399.06118774 107.40447998 C-400.25070038 107.49320374 -401.44021301 107.58192749 -402.66577148 107.67333984 C-403.88694672 107.77866028 -405.10812195 107.88398071 -406.36630249 107.99249268 C-410.28518556 108.32569946 -414.20567851 108.63217674 -418.12670898 108.93896484 C-420.74794309 109.15996261 -423.36903961 109.38259882 -425.98999023 109.60693359 C-446.61589008 111.33622796 -446.61589008 111.33622796 -454.50170898 111.18896484 C-454.41469727 110.28404297 -454.41469727 110.28404297 -454.32592773 109.36083984 C-453.94127666 104.09367405 -453.94127666 104.09367405 -456.62670898 99.75146484 C-462.65666218 96.47431637 -467.89609833 95.83019483 -474.62670898 95.87646484 C-475.46693604 95.88137939 -476.30716309 95.88629395 -477.17285156 95.89135742 C-488.29186559 96.09945875 -498.47259153 98.15984739 -506.56420898 106.25146484 C-507.65597015 108.14903843 -507.65597015 108.14903843 -507.50170898 110.31396484 C-506.0225501 113.08738776 -504.49131849 113.24714015 -501.50170898 114.18896484 C-498.5518734 114.58208212 -495.65149316 114.88829411 -492.68920898 115.12646484 C-491.79484131 115.20654785 -490.90047363 115.28663086 -489.97900391 115.36914062 C-485.54692711 115.7652915 -481.11309373 116.13844557 -476.6784668 116.50488281 C-422.81835363 120.96713116 -422.81835363 120.96713116 -408.70874023 137.25927734 C-400.24635349 149.7276679 -399.84422088 164.28107945 -402.58129883 178.72509766 C-403.16934003 181.55944257 -403.81412 184.37721702 -404.50170898 187.18896484 C-404.15092285 186.63772949 -403.80013672 186.08649414 -403.4387207 185.51855469 C-373.00170898 137.68896484 -373.00170898 137.68896484 -371.2512207 134.93823242 C-370.0861395 133.10736731 -368.92110035 131.27647544 -367.75610352 129.44555664 C-364.81552577 124.82423772 -361.87418806 120.20340564 -358.93139648 115.58349609 C-353.44011585 106.96122211 -347.95562619 98.33493153 -342.50170898 89.68896484 C-337.05743234 81.05828111 -331.58336111 72.44680067 -326.09936523 63.84130859 C-323.64176073 59.98377726 -321.1921537 56.12131346 -318.74780273 52.25537109 C-318.1308252 51.28124268 -317.51384766 50.30711426 -316.87817383 49.3034668 C-315.7112563 47.46074225 -314.54607426 45.61691694 -313.38305664 43.77172852 C-310.57606624 39.34396013 -307.71783751 34.952384 -304.77905273 30.61083984 C-303.94555298 29.37479004 -303.94555298 29.37479004 -303.09521484 28.11376953 C-300.66264267 25.17545193 -298.47902249 25.18640332 -294.74679565 24.76499939 C-293.14834741 24.61992376 -291.5495261 24.47892532 -289.95043945 24.34106445 C-288.6401049 24.22380257 -288.6401049 24.22380257 -287.30329895 24.10417175 C-284.40881274 23.8461849 -281.51388664 23.59357308 -278.61889648 23.34130859 C-276.60448417 23.16358185 -274.59009029 22.98564617 -272.57571411 22.80751038 C-268.34747627 22.43446226 -264.11901435 22.06409197 -259.89038086 21.69555664 C-254.48653075 21.22436548 -249.08330583 20.74639762 -243.68023491 20.2663641 C-239.51618962 19.8972104 -235.35182219 19.53179967 -231.18735123 19.16748238 C-229.1962673 18.99283017 -227.20528571 18.81700709 -225.21441269 18.63996696 C-222.41970809 18.39199341 -219.62460478 18.14910313 -216.8293457 17.9074707 C-216.01549911 17.83423584 -215.20165253 17.76100098 -214.36314392 17.68554688 C-209.05728963 17.2338533 -203.82705064 17.12791259 -198.50170898 17.18896484 C-197.72369536 21.39860265 -197.31960369 25.47327133 -197.16040039 29.74969482 C-197.10998596 31.05295212 -197.05957153 32.35620941 -197.00762939 33.69895935 C-196.95610779 35.13149777 -196.90465755 36.56403875 -196.85327148 37.99658203 C-196.79596968 39.51505279 -196.73832315 41.03351057 -196.68035889 42.55195618 C-196.55644056 45.81753435 -196.43495557 49.08319072 -196.31536865 52.34893036 C-196.12564128 57.52966291 -195.93047968 62.71018225 -195.73461914 67.89068604 C-195.42477403 76.10314641 -195.11858282 84.31573832 -194.81393623 92.52839303 C-194.27013903 107.18616696 -193.72108573 121.8437438 -193.16932487 136.50121999 C-192.976294 141.63319038 -192.78516827 146.76522719 -192.59552574 151.89732385 C-191.75393024 175.05281429 -191.75393024 175.05281429 -190.50170898 198.18896484 C-180.01811007 165.36217763 -169.57065981 132.52502393 -159.31420898 99.62646484 C-159.11138306 98.97588104 -158.90855713 98.32529724 -158.69958496 97.65499878 C-158.29040542 96.34248892 -157.88122891 95.02997811 -157.47205544 93.71746635 C-156.45219392 90.44618413 -155.43212392 87.17496697 -154.41186523 83.90380859 C-154.21136189 83.26091763 -154.01085854 82.61802666 -153.80427933 81.95565414 C-148.98974452 66.52197065 -144.12466817 51.10428488 -139.25170898 35.68896484 C-138.65623764 33.80514603 -138.65623764 33.80514603 -138.04873657 31.88327026 C-135.86775928 24.98473619 -133.68554541 18.08659435 -131.50170898 11.18896484 C-118.43759912 9.42807149 -105.34534871 8.18987527 -92.21655273 7.02490234 C-91.12357943 6.92744343 -90.03060612 6.82998451 -88.90451241 6.7295723 C-83.12054976 6.21402858 -77.33629038 5.70197881 -71.55175781 5.19287109 C-65.65045417 4.67279363 -59.75030367 4.14066292 -53.85033321 3.60570335 C-49.24602581 3.19050389 -44.64094098 2.78446586 -40.03561592 2.38072586 C-37.86331964 2.18874832 -35.69130927 1.99350057 -33.51963615 1.79459763 C-22.33910117 0.77374735 -11.23185975 0.02218241 0 0 Z M-58.37670898 64.68896484 C-59.85451291 64.834115 -61.33237745 64.97864933 -62.81030273 65.12255859 C-66.37500489 65.46984761 -69.9381222 65.82961155 -73.50170898 66.18896484 C-75.97670898 74.60396484 -75.97670898 74.60396484 -78.50170898 83.18896484 C-73.37820491 82.80470204 -68.25537574 82.41620667 -63.13305664 82.01708984 C-61.39333598 81.88279335 -59.65342672 81.75091576 -57.91333008 81.62158203 C-55.40057794 81.4343856 -52.88865075 81.23826811 -50.37670898 81.04052734 C-49.60866943 80.98522858 -48.84062988 80.92992981 -48.04931641 80.87295532 C-40.37947404 80.25213389 -33.72061816 79.07525062 -27.50170898 74.18896484 C-25.20007016 70.73650661 -25.15680576 69.24157772 -25.50170898 65.18896484 C-27.34771192 62.91728161 -27.34771192 62.91728161 -30.16625977 62.94091797 C-39.64106362 63.02242166 -48.95615021 63.73126874 -58.37670898 64.68896484 Z M-270.50170898 95.18896484 C-272.12534574 97.25133579 -273.38624351 99.17937771 -274.68920898 101.43896484 C-275.09848633 102.12120117 -275.50776367 102.8034375 -275.92944336 103.50634766 C-276.88782983 105.10434398 -277.84028167 106.70590738 -278.78833008 108.31005859 C-280.78852563 111.67088874 -282.82432311 115.0088624 -284.86499023 118.34521484 C-287.8952062 123.30543345 -290.92486522 128.26595469 -293.93920898 133.23583984 C-294.57729492 134.28610352 -295.21538086 135.33636719 -295.87280273 136.41845703 C-297.18165679 138.64460748 -298.38979546 140.86037207 -299.50170898 143.18896484 C-282.75768489 143.11923401 -282.75768489 143.11923401 -266.50170898 140.18896484 C-266.50170898 125.33896484 -266.50170898 110.48896484 -266.50170898 95.18896484 C-267.82170898 95.18896484 -269.14170898 95.18896484 -270.50170898 95.18896484 Z M-59.37670898 124.81005859 C-60.46894775 124.90638329 -60.46894775 124.90638329 -61.58325195 125.00465393 C-63.11284244 125.14022475 -64.64230158 125.27728509 -66.17163086 125.41577148 C-68.49487889 125.62584724 -70.81854919 125.83062473 -73.14233398 126.03466797 C-74.63715362 126.16781787 -76.13194626 126.30127129 -77.62670898 126.43505859 C-78.65513916 126.52574867 -78.65513916 126.52574867 -79.7043457 126.61827087 C-83.9972119 127.0098792 -88.2409653 127.54743241 -92.50170898 128.18896484 C-94.80646097 134.11546996 -96.72515028 140.08500165 -98.50170898 146.18896484 C-89.63376024 146.37994723 -80.87300963 145.90774817 -72.04663086 145.12695312 C-69.87375093 144.93870858 -67.69983805 144.77275016 -65.52514648 144.60693359 C-56.63086782 143.86615528 -47.82241721 142.99530304 -40.87670898 136.87646484 C-39.06570345 133.33677221 -38.84885585 131.10608362 -39.50170898 127.18896484 C-44.78810284 122.22295849 -52.68812636 124.20049175 -59.37670898 124.81005859 Z " fill="#FFFFFF" transform="translate(799.501708984375,271.81103515625)"/>
<path d="M0 0 C1.04464149 -0.00342628 1.04464149 -0.00342628 2.11038685 -0.00692177 C15.02933325 0.11750367 28.40408885 2.63058182 38.43481445 11.26318359 C45.55689533 18.66963068 47.57851774 26.52809675 47.3996582 36.62646484 C47.38950684 37.46048828 47.37935547 38.29451172 47.36889648 39.15380859 C47.21520084 45.2539768 46.57278791 50.58503209 44.0246582 56.18896484 C43.65727539 57.05263672 43.28989258 57.91630859 42.91137695 58.80615234 C36.93399369 71.25462603 26.98249771 79.33456644 14.95825195 85.56787109 C12.47460176 86.94032759 10.84507468 88.05758755 9.0246582 90.18896484 C9.6537207 90.58986328 10.2827832 90.99076172 10.9309082 91.40380859 C20.55861141 97.79811147 27.40621607 104.0745749 30.3996582 115.54052734 C33.0932267 131.26423343 30.68473289 146.80026882 22.05200195 160.41552734 C5.3992788 183.19670931 -23.60223417 191.96438866 -50.29931641 196.19384766 C-51.90654398 196.44860807 -51.90654398 196.44860807 -53.54624081 196.70851517 C-66.29374668 198.64660312 -79.1088943 199.74503949 -91.95325589 200.81576061 C-95.41838505 201.1066534 -98.88258467 201.40825319 -102.34690857 201.70855713 C-108.86200354 202.27175996 -115.37784198 202.82579161 -121.89402479 203.37624955 C-129.33161405 204.0050148 -136.76827675 204.64443017 -144.20489228 205.28459311 C-159.46073128 206.59762222 -174.71763956 207.89775518 -189.9753418 209.18896484 C-189.39236192 204.40480129 -188.43871617 200.02274274 -186.97607422 195.43334961 C-186.77353783 194.79247941 -186.57100143 194.15160921 -186.36232758 193.4913187 C-185.69032283 191.36932307 -185.01055282 189.24989955 -184.33081055 187.13037109 C-183.84850781 185.61221441 -183.36673447 184.09388946 -182.88545227 182.57540894 C-181.85550028 179.32914206 -180.82225893 176.08394854 -179.78637695 172.83956909 C-178.14578296 167.70074845 -176.51280733 162.55952891 -174.8815918 157.41772461 C-174.60795115 156.55522693 -174.33431049 155.69272924 -174.0523777 154.80409527 C-173.4970704 153.05376395 -172.94178595 151.30342538 -172.3865242 149.55307961 C-171.54598442 146.90425777 -170.7047515 144.2556569 -169.8633728 141.60710144 C-164.89077062 125.94970283 -159.97765807 110.27409312 -155.08781815 94.59067917 C-154.0722212 91.33365533 -153.05587369 88.07686573 -152.03955078 84.82006836 C-151.8406981 84.18284127 -151.64184542 83.54561419 -151.4369669 82.88907719 C-151.23906528 82.25490092 -151.04116365 81.62072466 -150.83726501 80.96733093 C-150.04963439 78.4433601 -149.26208636 75.91936349 -148.47462463 73.39533997 C-144.23896019 59.82212332 -139.9835369 46.2551284 -135.7253418 32.68896484 C-135.37592529 31.57568817 -135.02650879 30.4624115 -134.66650391 29.31539917 C-132.76996284 23.27309325 -130.87291665 17.23094618 -128.9753418 11.18896484 C-116.15797203 9.29986095 -103.29676668 8.14737578 -90.39331055 7.02490234 C-88.12615823 6.82605297 -85.85901256 6.62712777 -83.59187317 6.4281311 C-78.86110575 6.01386813 -74.13009552 5.60251224 -69.39892578 5.19287109 C-63.38400923 4.6715614 -57.37005355 4.13993352 -51.3562727 3.60570335 C-46.67997236 3.19199722 -42.00307112 2.78541993 -37.32598305 2.38072586 C-35.11055802 2.18790598 -32.89534745 1.99260303 -30.68037987 1.79459763 C-20.45716467 0.88321458 -10.26970948 0.02649523 0 0 Z M-42.2019043 56.71240234 C-42.95321625 56.77803375 -43.7045282 56.84366516 -44.47860718 56.9112854 C-46.05371661 57.05037582 -47.62847986 57.19343971 -49.20288086 57.34033203 C-51.60031093 57.56396196 -53.99854572 57.77598064 -56.3972168 57.98583984 C-57.93633926 58.12319035 -59.47540406 58.26118902 -61.0144043 58.39990234 C-61.72392242 58.46349945 -62.43344055 58.52709656 -63.16445923 58.59262085 C-67.13711264 58.96496627 -71.04850298 59.48175075 -74.9753418 60.18896484 C-76.14686558 63.64567217 -77.31173257 67.10458606 -78.4753418 70.56396484 C-78.97614258 72.04123047 -78.97614258 72.04123047 -79.48706055 73.54833984 C-79.80288086 74.48935547 -80.11870117 75.43037109 -80.4440918 76.39990234 C-80.73735352 77.26921387 -81.03061523 78.13852539 -81.33276367 79.03417969 C-82.07059968 81.13363783 -82.07059968 81.13363783 -81.9753418 83.18896484 C-74.1848276 83.37299274 -66.49764183 82.76757416 -58.74658203 82.07202148 C-56.54689662 81.87726654 -54.34628465 81.69798178 -52.14526367 81.51904297 C-36.6685979 80.31189575 -36.6685979 80.31189575 -23.9753418 72.18896484 C-21.18987627 68.51721484 -21.55420526 64.61089843 -21.9753418 60.18896484 C-24.22770783 57.27965872 -25.98725468 57.18700518 -29.61743164 56.58984375 C-33.89063456 56.10003572 -37.93184002 56.30295749 -42.2019043 56.71240234 Z M-71.28320312 119.41577148 C-73.56606763 119.62910251 -75.84966107 119.83256942 -78.13354492 120.03466797 C-86.60527643 120.74947161 -86.60527643 120.74947161 -94.9753418 122.18896484 C-96.15186651 125.60231695 -97.31482354 129.02014079 -98.4753418 132.43896484 C-98.97614258 133.89109375 -98.97614258 133.89109375 -99.48706055 135.37255859 C-99.80288086 136.30712891 -100.11870117 137.24169922 -100.4440918 138.20458984 C-100.73735352 139.06342773 -101.03061523 139.92226562 -101.33276367 140.80712891 C-102.14898866 143.4214541 -102.14898866 143.4214541 -101.9753418 147.18896484 C-91.50396841 146.73163076 -81.05954491 145.92496192 -70.62011719 145.00161743 C-69.20166235 144.87751273 -67.78287466 144.75714995 -66.36376953 144.64071655 C-50.7600735 143.42355707 -50.7600735 143.42355707 -37.9753418 135.18896484 C-35.63599939 132.10528621 -35.5629783 128.86098134 -35.6472168 125.09130859 C-36.15314191 122.15814753 -37.63957347 120.90644155 -39.9753418 119.18896484 C-47.91926107 115.21700521 -62.50631906 118.59434638 -71.28320312 119.41577148 Z " fill="#FFFFFF" transform="translate(622.975341796875,55.81103515625)"/>
<path d="M0 0 C-0.64807862 6.7826144 -2.75164712 12.99881435 -4.83984375 19.4609375 C-5.44392621 21.35470259 -6.04800829 23.2484678 -6.65207577 25.14223766 C-7.51913334 27.85537239 -8.39145784 30.56680345 -9.26361847 33.27830124 C-11.09117895 38.96452891 -12.90812114 44.65416875 -14.72714996 50.34313011 C-15.4296939 52.53957633 -16.1330312 54.73576758 -16.83636475 56.93196106 C-19.72634477 65.96396944 -22.57323544 75.00835756 -25.3798008 84.06661987 C-26.36839678 87.25505954 -27.36147528 90.44210093 -28.35375977 93.62939453 C-29.47315618 97.22499557 -30.58939775 100.82135809 -31.69308472 104.42181396 C-39.71519583 130.57615846 -48.68317021 157.11302216 -67 178 C-67.67289063 178.81597656 -68.34578125 179.63195312 -69.0390625 180.47265625 C-88.48972768 203.35371147 -116.29477713 212.89684927 -145 218 C-145.73943848 218.13277344 -146.47887695 218.26554688 -147.24072266 218.40234375 C-174.96885843 223.0817542 -210.0370847 223.57630583 -234 207.1875 C-244.30047016 199.11828896 -250.80293812 188.04558775 -252.71875 175.05859375 C-254.13374756 159.67049533 -252.07886431 145.38619088 -247.58984375 130.671875 C-247.33717239 129.83700562 -247.08450104 129.00213623 -246.82417297 128.14196777 C-242.51298528 114.01015918 -237.95959345 99.95196629 -233.45068359 85.88232422 C-232.19032595 81.94804081 -230.93219835 78.01304443 -229.67382812 74.078125 C-227.48216017 67.22553201 -225.28652874 60.37421747 -223.08920097 53.5234375 C-221.70701278 49.21205053 -220.32991191 44.8990827 -218.9576025 40.58454132 C-218.31703161 38.57130181 -217.6752079 36.55846651 -217.03291321 34.54577637 C-216.25053553 32.09317776 -215.47046131 29.63984278 -214.69303894 27.18566895 C-214.17946587 25.57879211 -214.17946587 25.57879211 -213.65551758 23.93945312 C-213.35809158 23.0039563 -213.06066559 22.06845947 -212.75422668 21.10461426 C-212 19 -212 19 -211 18 C-208.97105871 17.72804291 -206.93359598 17.5194705 -204.89477539 17.33569336 C-203.58573746 17.21564438 -202.27669952 17.0955954 -200.92799377 16.97190857 C-199.48456794 16.84432712 -198.04112153 16.71697815 -196.59765625 16.58984375 C-195.12086122 16.45701802 -193.64409048 16.32392198 -192.16734314 16.19056702 C-189.06127935 15.91113385 -185.95494568 15.63497771 -182.84838867 15.36108398 C-178.89057382 15.01188284 -174.9335239 14.65475576 -170.97664738 14.2950964 C-167.92006378 14.0181709 -164.86310795 13.74554388 -161.80602837 13.47415352 C-160.34885489 13.34429045 -158.89179579 13.21313681 -157.43486214 13.08061028 C-149.61413121 12.37172759 -141.85957349 11.78467624 -134 12 C-134.63314103 18.52255809 -136.61653796 24.41830448 -138.69140625 30.61328125 C-139.25733742 32.32754051 -139.25733742 32.32754051 -139.83470154 34.07643127 C-140.85968787 37.17931657 -141.88956192 40.2805308 -142.92108154 43.38124847 C-144.65564469 48.60385736 -146.37366643 53.83195509 -148.09513474 59.0588913 C-148.75694985 61.0678326 -149.41940508 63.076562 -150.0819397 65.08526611 C-154.09515246 77.25840702 -158.05208061 89.44934869 -161.96652222 101.65463257 C-162.64911612 103.78162863 -163.33327022 105.9081247 -164.01907349 108.03408813 C-171.32773712 126.35076077 -171.32773712 126.35076077 -172.1875 145.25 C-171.97480469 146.16265625 -171.76210937 147.0753125 -171.54296875 148.015625 C-171.36378906 148.67046875 -171.18460938 149.3253125 -171 150 C-160.06309327 154.63989983 -149.0930429 153.93818054 -138 150 C-126.15346549 144.95234617 -119.90710611 134.44905562 -115 123 C-112.54424311 116.39153571 -110.45693723 109.65153083 -108.3125 102.9375 C-107.66805229 100.93937626 -107.02310191 98.94141458 -106.37768555 96.94360352 C-99.42276395 75.36710459 -92.6057968 53.74528323 -85.80078125 32.12109375 C-85.47529297 31.08730591 -85.14980469 30.05351807 -84.81445312 28.98840332 C-84.5022583 27.99505981 -84.19006348 27.00171631 -83.8684082 25.97827148 C-83.56254791 25.01355927 -83.25668762 24.04884705 -82.94155884 23.05490112 C-82.25960296 20.84228551 -81.60983923 18.6196637 -80.98007202 16.39163208 C-80.64013214 15.20802094 -80.30019226 14.02440979 -79.94995117 12.80493164 C-79.49672737 11.17655113 -79.49672737 11.17655113 -79.03434753 9.51527405 C-78.69301285 8.68523361 -78.35167816 7.85519318 -78 7 C-74.75438429 5.9181281 -71.93733254 5.63715332 -68.52832031 5.33569336 C-67.87588348 5.27702591 -67.22344666 5.21835846 -66.55123901 5.15791321 C-64.39384028 4.96491796 -62.23601684 4.77723892 -60.078125 4.58984375 C-58.57458493 4.45698184 -57.07106551 4.3238862 -55.56756592 4.19056702 C-52.41373397 3.91173435 -49.25968943 3.63548336 -46.10546875 3.36108398 C-42.07582367 3.01035825 -38.04673262 2.65368253 -34.0177803 2.2950964 C-30.91062087 2.01915367 -27.80320415 1.74620261 -24.6957016 1.47415352 C-23.21096935 1.34385259 -21.72631299 1.21268378 -20.24173737 1.08061028 C-18.15782674 0.89571289 -16.07360548 0.7148069 -13.98925781 0.53491211 C-12.80583801 0.43133896 -11.62241821 0.32776581 -10.40313721 0.22105408 C-6.9254171 -0.0048446 -3.48402109 -0.03802524 0 0 Z " fill="#FFFFFF" transform="translate(1308,227)"/>
<path d="M0 0 C13.70684566 11.72513303 21.17724032 27.56004636 22.70947266 45.52368164 C22.84296681 49.21926977 22.87384481 52.89591045 22.84375 56.59375 C22.83239014 58.56335693 22.83239014 58.56335693 22.82080078 60.57275391 C22.64328922 71.11849541 21.51677364 80.89113011 18.40625 90.96875 C18.19726074 91.65001953 17.98827148 92.33128906 17.77294922 93.03320312 C5.52242095 131.46407382 -23.17625013 160.75090279 -58.44921875 179.10717773 C-72.35886573 186.0531817 -87.2340549 190.6223806 -102.59375 192.96875 C-104.30498047 193.24138672 -104.30498047 193.24138672 -106.05078125 193.51953125 C-131.13228769 196.52007036 -158.71626705 195.42971942 -179.56640625 179.73046875 C-182.03695261 177.57293279 -184.32837735 175.3391956 -186.59375 172.96875 C-187.55861328 172.03289062 -187.55861328 172.03289062 -188.54296875 171.078125 C-202.41075959 156.75910452 -204.15974068 136.45552224 -203.99829102 117.62451172 C-203.79168474 108.40807522 -203.07225097 99.86337042 -200.59375 90.96875 C-200.2534375 89.73898438 -199.913125 88.50921875 -199.5625 87.2421875 C-192.74946253 65.00774766 -180.3526889 45.68649447 -163.984375 29.3671875 C-162.58280318 27.96103538 -161.19616702 26.53914691 -159.84765625 25.08203125 C-123.91605717 -13.17308925 -44.187023 -34.60429512 0 0 Z M-115.59375 62.96875 C-116.2228125 63.6390625 -116.851875 64.309375 -117.5 65 C-128.8559655 78.10303712 -134.91867613 93.66488146 -133.83203125 110.96582031 C-133.07539098 117.32593998 -129.81488438 122.13174127 -125.21875 126.40625 C-118.06290102 131.85392858 -110.53648991 133.41103781 -101.70703125 132.75390625 C-85.77201226 130.56674678 -70.84828791 122.38312648 -60.59375 109.96875 C-52.39400269 98.34028272 -45.28448836 84.63248036 -46.59375 69.96875 C-48.40978113 61.68393644 -51.24693143 54.76015341 -58.59375 49.96875 C-76.72550468 40.12191693 -102.06400835 48.33453964 -115.59375 62.96875 Z " fill="#FFFFFF" transform="translate(432.59375,87.03125)"/>
<path d="M0 0 C6.7414463 6.11795993 10.35824758 13.07837544 11.34375 22.171875 C11.64304623 32.5973604 9.11378634 41.51479801 5 51 C-2.61694769 51.71465615 -10.23415944 52.42644456 -17.8515625 53.13623047 C-20.44342128 53.37808102 -23.03521866 53.62059042 -25.62695312 53.86376953 C-29.35010122 54.21299284 -33.07346294 54.55985392 -36.796875 54.90625 C-37.95741394 55.0156189 -39.11795288 55.12498779 -40.31365967 55.2376709 C-41.39447815 55.33777466 -42.47529663 55.43787842 -43.58886719 55.54101562 C-44.53928894 55.62984009 -45.48971069 55.71866455 -46.46893311 55.81018066 C-48.64077564 55.97305969 -50.82205841 56 -53 56 C-53.0515625 55.40832031 -53.103125 54.81664062 -53.15625 54.20703125 C-53.86045082 49.24488613 -53.86045082 49.24488613 -56.7734375 45.32421875 C-66.68978562 39.07581352 -80.14290775 39.56561403 -91.37109375 41.71875 C-99.48196587 43.74442602 -107.10634104 45.87872815 -112.0625 52.9375 C-113.16567939 56.54121935 -113.26412258 58.44465523 -112 62 C-107.81096476 65.28329789 -103.5826181 66.04312763 -98.39355469 66.43310547 C-97.48450378 66.50342987 -96.57545288 66.57375427 -95.63885498 66.64620972 C-94.65975159 66.71913239 -93.68064819 66.79205505 -92.671875 66.8671875 C-90.57028873 67.0322497 -88.46872702 67.19762484 -86.3671875 67.36328125 C-83.07675681 67.61905207 -79.78619217 67.87227989 -76.49511719 68.11962891 C-27.79770773 71.80256424 -27.79770773 71.80256424 -14.15625 87.0625 C-6.15714043 98.04167 -5.87187005 110.77786919 -7.67236328 123.80175781 C-10.64726705 142.05906586 -21.3735804 157.89837745 -36 169 C-59.11706604 185.33944984 -87.31673575 191.71216759 -115 195 C-115.79188721 195.09498779 -116.58377441 195.18997559 -117.3996582 195.2878418 C-143.99737843 198.09519611 -177.32192004 200.12360718 -199.4375 182.75 C-204.38768897 178.12982363 -208.57978876 170.81996785 -209.17700195 163.96972656 C-209.49370865 151.93234859 -208.93932864 141.44867387 -205 130 C-193.90788184 128.65693726 -182.79378895 127.5773612 -171.66595459 126.58047485 C-170.14749524 126.44428481 -168.62914177 126.30690864 -167.11090088 126.16830444 C-164.93623253 125.97039336 -162.76117566 125.77747295 -160.5859375 125.5859375 C-159.3179834 125.4729834 -158.0500293 125.3600293 -156.74365234 125.24365234 C-152.80800471 124.98750415 -148.94239413 124.95905282 -145 125 C-144.92523438 125.60328125 -144.85046875 126.2065625 -144.7734375 126.828125 C-144.0582314 131.17545618 -143.66136951 133.40015323 -140.3125 136.4375 C-125.22655337 143.55351256 -106.50574067 140.45785565 -91 136 C-85.2502988 133.92876261 -80.00086537 131.59252184 -77 126 C-76.33319632 122.95720628 -76.33319632 122.95720628 -77 120 C-79.73710858 116.21015734 -82.57639668 115.19413594 -87 114 C-90.25878079 113.6045618 -93.51895942 113.4453062 -96.796875 113.2890625 C-98.7461136 113.17742945 -100.69533171 113.06543813 -102.64453125 112.953125 C-105.67797582 112.78776166 -108.71152732 112.62694401 -111.74560547 112.47363281 C-133.13961822 111.36892635 -157.25425312 109.74050488 -172.78125 93.08984375 C-180.29428407 83.82745125 -181.65037573 72.79328339 -180.60327148 61.18237305 C-178.44518155 41.73186618 -168.70617067 26.29222309 -154.21875 13.5546875 C-135.0333881 -1.57223246 -111.80237025 -8.94752098 -88 -13 C-86.70964844 -13.22558594 -85.41929687 -13.45117188 -84.08984375 -13.68359375 C-57.23592362 -17.58130989 -21.8498016 -18.72281747 0 0 Z " fill="#FFFFFF" transform="translate(222,105)"/>
<path d="M0 0 C1.65063651 34.67614309 3.03572716 69.36169418 4.37096381 104.05109382 C4.59818699 109.94662636 4.82918273 115.84200709 5.06090128 121.73736441 C5.28848241 127.53202011 5.51334189 133.3267775 5.73617589 139.12161767 C5.86754146 142.53656482 5.99991689 145.9514642 6.13515091 149.36626053 C6.6955549 163.58382771 7.17472029 177.77029967 7 192 C-0.41551006 192.69657738 -7.83131227 193.38998065 -15.24731445 194.08129883 C-17.76398248 194.31626515 -20.28058568 194.55192695 -22.79711914 194.78833008 C-35.85762262 196.01477799 -48.90402126 197.22651042 -62 198 C-62 190.41 -62 182.82 -62 175 C-65.64289063 175.33773437 -69.28578125 175.67546875 -73.0390625 176.0234375 C-76.6469684 176.35779337 -80.25488041 176.69208324 -83.86279297 177.02636719 C-86.33154933 177.25513968 -88.80029954 177.4839786 -91.26904297 177.71289062 C-93.66707251 177.93523741 -96.06518459 178.15669581 -98.46337891 178.3772583 C-100.84811713 178.59979968 -103.23224937 178.82893269 -105.61572266 179.06463623 C-111.21920783 179.61053699 -116.78147809 180.0612839 -122.41015625 180.22363281 C-132.23566156 180.27421467 -132.23566156 180.27421467 -140.89111328 184.18505859 C-143.00098231 187.04471999 -144.38430783 189.72398917 -145.75 193 C-146.50603516 194.53527344 -146.50603516 194.53527344 -147.27734375 196.1015625 C-148.20036206 197.97729408 -149.08891285 199.87071875 -149.92871094 201.78515625 C-151 204 -151 204 -153 206 C-155.21653748 206.42359924 -155.21653748 206.42359924 -158.00952148 206.67016602 C-159.05498642 206.76689102 -160.10045135 206.86361603 -161.17759705 206.96327209 C-162.88212791 207.107136 -162.88212791 207.107136 -164.62109375 207.25390625 C-165.79076187 207.35968491 -166.96042999 207.46546356 -168.1655426 207.57444763 C-171.92216489 207.91222566 -175.67975062 208.23752493 -179.4375 208.5625 C-181.93692241 208.78498371 -184.43627251 209.00828125 -186.93554688 209.23242188 C-192.6078816 209.73964146 -198.28087986 210.2385579 -203.95455933 210.73049927 C-207.81748937 211.07234223 -211.67782998 211.44016757 -215.53773499 211.81455994 C-219.36693556 212.10294774 -223.16170345 212.06292289 -227 212 C-225.67724536 208.44791023 -224.10330349 205.34649228 -222.0859375 202.140625 C-221.2040979 200.73369385 -221.2040979 200.73369385 -220.30444336 199.29833984 C-219.3493689 197.78941162 -219.3493689 197.78941162 -218.375 196.25 C-217.71056885 195.19377441 -217.0461377 194.13754883 -216.36157227 193.04931641 C-210.26245938 183.37160958 -204.09598428 173.73684525 -197.91796875 164.109375 C-189.39938798 150.83442899 -180.94911298 137.51606805 -172.53369141 124.17553711 C-166.97475258 115.36730769 -161.37800519 106.58319275 -155.78222656 97.79833984 C-152.85345187 93.19976238 -149.92682309 88.59981973 -147 84 C-145.83334387 82.16665996 -144.6666772 80.33332663 -143.5 78.5 C-142.63375 77.13875 -142.63375 77.13875 -141.75 75.75 C-140 73 -138.25 70.25 -136.5 67.5 C-135.92241943 66.59233887 -135.34483887 65.68467773 -134.74975586 64.74951172 C-133.58402939 62.91772555 -132.41817669 61.0860197 -131.25219727 59.25439453 C-128.32010086 54.64804282 -125.39026849 50.04027962 -122.46484375 45.4296875 C-116.57832437 36.15669293 -110.66605375 26.90149661 -104.6875 17.6875 C-103.85109985 16.39658447 -103.85109985 16.39658447 -102.99780273 15.07958984 C-102.23125366 13.90130615 -102.23125366 13.90130615 -101.44921875 12.69921875 C-100.99893311 12.00658936 -100.54864746 11.31395996 -100.0847168 10.6003418 C-99 9 -99 9 -98 8 C-95.21258725 7.66501906 -92.44030853 7.39019357 -89.64404297 7.15209961 C-88.76756607 7.07392502 -87.89108917 6.99575043 -86.98805237 6.91520691 C-84.07314037 6.65643731 -81.15769913 6.40426083 -78.2421875 6.15234375 C-76.22011662 5.97471829 -74.19807306 5.79678151 -72.17605591 5.61854553 C-67.92751029 5.24504122 -63.67870639 4.87467208 -59.4296875 4.5065918 C-53.99195727 4.03538063 -48.55483815 3.55751246 -43.1178875 3.07739925 C-38.93671796 2.70875059 -34.75528603 2.3431534 -30.5737648 1.97851753 C-28.56989535 1.80350782 -26.56609747 1.62767668 -24.56237411 1.45100212 C-21.75260984 1.2038233 -18.94252797 0.9606303 -16.13232422 0.71850586 C-14.89605537 0.60865356 -14.89605537 0.60865356 -13.6348114 0.49658203 C-9.06965785 0.10801598 -4.58173891 -0.07024044 0 0 Z M-72 73 C-74.3143136 75.734016 -76.03105627 78.77594401 -77.8125 81.875 C-78.93993698 83.76832873 -80.06755099 85.66155206 -81.1953125 87.5546875 C-82.10071777 89.09527832 -82.10071777 89.09527832 -83.02441406 90.66699219 C-85.16688257 94.2815473 -87.35436941 97.86582105 -89.5546875 101.4453125 C-90.71683177 103.33987457 -91.87862506 105.23465152 -93.04037476 107.12945557 C-93.80161827 108.37076711 -94.5633529 109.61177761 -95.32559204 110.85247803 C-96.40200196 112.60760903 -97.4731354 114.36585462 -98.54296875 116.125 C-99.16196045 117.13820312 -99.78095215 118.15140625 -100.41870117 119.1953125 C-101.86021874 121.75207548 -102.98888536 124.24911321 -104 127 C-99.14341419 126.59365992 -94.28706453 126.18463439 -89.4309082 125.77319336 C-87.78122982 125.63379529 -86.13149085 125.49511222 -84.48168945 125.35717773 C-82.10090848 125.15800035 -79.72036223 124.95619398 -77.33984375 124.75390625 C-76.61039047 124.6934462 -75.88093719 124.63298615 -75.12937927 124.57069397 C-74.42918167 124.51070724 -73.72898407 124.45072052 -73.00756836 124.38891602 C-72.4013414 124.33784195 -71.79511444 124.28676788 -71.17051697 124.23414612 C-68.10391248 123.9033339 -65.05339644 123.43619949 -62 123 C-62 105.84 -62 88.68 -62 71 C-66.18728982 71 -68.27153219 71.13810516 -72 73 Z " fill="#FFFFFF" transform="translate(857,35)"/>
<path d="M0 0 C-1.54311275 7.6087056 -3.74861034 14.91688888 -6.09765625 22.3125 C-6.49198349 23.56256836 -6.88631073 24.81263672 -7.29258728 26.10058594 C-8.12140969 28.72685366 -8.95288752 31.3522606 -9.78637695 33.97705078 C-10.85599338 37.34604009 -11.91931467 40.71697763 -12.98076725 44.08854675 C-13.99577666 47.31002048 -15.01563193 50.52995222 -16.03515625 53.75 C-16.41744888 54.96341064 -16.79974152 56.17682129 -17.19361877 57.42700195 C-17.72438271 59.09508911 -17.72438271 59.09508911 -18.26586914 60.796875 C-18.57738419 61.78010742 -18.88889923 62.76333984 -19.20985413 63.77636719 C-20 66 -20 66 -21 67 C-22.62558101 67.23523133 -24.26016473 67.40864354 -25.89599609 67.55664062 C-27.46430679 67.70184143 -27.46430679 67.70184143 -29.06430054 67.84997559 C-30.77657333 68.00158142 -30.77657333 68.00158142 -32.5234375 68.15625 C-34.2800621 68.31704041 -34.2800621 68.31704041 -36.07217407 68.4810791 C-39.83941402 68.82492381 -43.60718386 69.16253348 -47.375 69.5 C-49.87894351 69.72745475 -52.38285029 69.95531431 -54.88671875 70.18359375 C-60.56662338 70.7005946 -66.24691667 71.21311571 -71.9274292 71.72338867 C-76.61857835 72.14571417 -81.30931488 72.57255534 -86 73 C-89.10110874 80.39738261 -91.66272809 87.89240917 -94.0625 95.54296875 C-94.65253191 97.40751535 -95.24256417 99.27206185 -95.83260918 101.13660431 C-96.4595119 103.12013408 -97.08454275 105.10424486 -97.70904541 107.08853149 C-99.01489421 111.23712986 -100.32709475 115.38370295 -101.64013672 119.5300293 C-105.63043816 132.13552572 -109.60674524 144.74541371 -113.57348251 157.35834408 C-115.42163065 163.23408105 -117.27383397 169.10853104 -119.12863541 174.98217106 C-120.45431134 179.18149993 -121.77416107 183.38260315 -123.08973885 187.5851059 C-123.71074389 189.5655205 -124.33456519 191.54502054 -124.95968628 193.5241394 C-125.72284218 195.94030674 -126.48148961 198.35790429 -127.2348938 200.77713013 C-127.73954666 202.36725418 -127.73954666 202.36725418 -128.25439453 203.98950195 C-128.54492706 204.91422806 -128.83545959 205.83895416 -129.13479614 206.79170227 C-130 209 -130 209 -132 211 C-134.76821899 211.46829224 -134.76821899 211.46829224 -138.34228516 211.77783203 C-138.99296967 211.83664551 -139.64365417 211.89545898 -140.3140564 211.95605469 C-142.47171835 212.14876994 -144.63025266 212.32845083 -146.7890625 212.5078125 C-148.29167608 212.63878586 -149.79422882 212.77045883 -151.29672241 212.90280151 C-154.45208619 213.17885767 -157.60788503 213.44892538 -160.76416016 213.71435547 C-164.79296893 214.05327832 -168.82074478 214.40296791 -172.84827614 214.75671577 C-175.95542159 215.02907482 -179.06288908 215.29759145 -182.17048264 215.564785 C-183.65437322 215.69245226 -185.13820281 215.82083067 -186.62196732 215.94995499 C-200.86776005 217.18299599 -200.86776005 217.18299599 -208 217 C-205.90366511 209.04292594 -203.54081274 201.19628588 -201.03515625 193.359375 C-200.45630928 191.5392968 -200.45630928 191.5392968 -199.86576843 189.68244934 C-199.03376691 187.06637467 -198.20037809 184.45074784 -197.36584473 181.83547974 C-196.04606537 177.69952929 -194.72932862 173.56261422 -193.41308594 169.42553711 C-192.03478433 165.0939411 -190.6562363 160.76242415 -189.27658081 156.43125916 C-185.92196978 145.90005547 -182.57397802 135.36676469 -179.23046875 124.83203125 C-178.99802523 124.09965366 -178.7655817 123.36727608 -178.52609444 122.61270523 C-177.38074018 119.00383561 -176.23549231 115.39493224 -175.09030151 111.78601074 C-172.95147495 105.04593658 -170.81161171 98.30619151 -168.671875 91.56640625 C-167.95409724 89.30542129 -167.23632332 87.04443512 -166.51855469 84.78344727 C-166.01236979 83.18896484 -165.5061849 81.59448242 -165 80 C-165.70664291 80.06264038 -166.41328583 80.12528076 -167.14134216 80.18981934 C-173.83404471 80.7823882 -180.52707003 81.37115342 -187.22047329 81.95575714 C-190.66075845 82.25636481 -194.10090642 82.55838925 -197.54077148 82.86376953 C-201.50466921 83.21560682 -205.46911057 83.56106972 -209.43359375 83.90625 C-210.65582138 84.0156189 -211.87804901 84.12498779 -213.13731384 84.2376709 C-219.45391346 84.78252431 -225.6600541 85.11867002 -232 85 C-229.97168545 76.49315328 -227.59483225 68.14323008 -224.98828125 59.796875 C-224.61519333 58.5930719 -224.24210541 57.3892688 -223.85771179 56.14898682 C-222.87863734 52.99196022 -221.89676498 49.83582317 -220.91345215 46.68011475 C-219.90538373 43.44243979 -218.90110788 40.20358893 -217.89648438 36.96484375 C-215.93443015 30.64215629 -213.96867409 24.32062919 -212 18 C-185.24483667 15.6499275 -158.48941401 13.30282761 -131.73367882 10.95927429 C-119.31077206 9.87107334 -106.88795229 8.78189678 -94.46533203 7.69042969 C-83.63883153 6.73920218 -72.81217288 5.78979883 -61.98531973 4.84259319 C-56.25167463 4.34091112 -50.51811334 3.83831083 -44.78474045 3.33352661 C-39.38913672 2.85850968 -33.99332502 2.38593075 -28.59734344 1.91522598 C-26.61633803 1.7419841 -24.63541047 1.56784937 -22.65456772 1.39275742 C-19.95061044 1.15388178 -17.24639169 0.91821702 -14.54208374 0.68334961 C-13.36599629 0.57829401 -13.36599629 0.57829401 -12.1661495 0.47111607 C-8.09747014 0.12142211 -4.08355804 -0.07072086 0 0 Z " fill="#FFFFFF" transform="translate(1090,246)"/>
<path d="M0 0 C-0.65560793 6.53472583 -2.57524644 12.52793962 -4.5625 18.76953125 C-4.9138501 19.88688156 -5.2652002 21.00423187 -5.62719727 22.15544128 C-6.36773316 24.50701894 -7.11086861 26.85777936 -7.85644531 29.20776367 C-9.00104734 32.81580144 -10.13792855 36.42620072 -11.2734375 40.03710938 C-11.99434575 42.32305734 -12.71568485 44.60886949 -13.4375 46.89453125 C-13.95002319 48.51945244 -13.95002319 48.51945244 -14.47290039 50.17720032 C-14.7899292 51.17551376 -15.10695801 52.17382721 -15.43359375 53.20239258 C-15.71259521 54.08284744 -15.99159668 54.96330231 -16.27905273 55.87043762 C-17 58 -17 58 -18 60 C-20.76489258 60.55810547 -20.76489258 60.55810547 -24.58203125 60.9921875 C-25.28415237 61.07298553 -25.9862735 61.15378357 -26.70967102 61.23703003 C-35.98522463 62.27239152 -45.28696376 63.06618645 -54.58569336 63.85986328 C-57.72089789 64.12785479 -60.85557378 64.40150758 -63.99023438 64.67578125 C-65.99736729 64.84928889 -68.00452777 65.02247787 -70.01171875 65.1953125 C-70.9419133 65.27653351 -71.87210785 65.35775452 -72.83049011 65.44143677 C-74.13389091 65.5518782 -74.13389091 65.5518782 -75.46362305 65.66455078 C-76.22144577 65.72957794 -76.97926849 65.7946051 -77.76005554 65.86160278 C-80.17852969 66.01103064 -82.57752565 66.0229141 -85 66 C-85.25096436 67.23049072 -85.50192871 68.46098145 -85.76049805 69.72875977 C-87.09450336 75.71398287 -88.957628 81.50544655 -90.83203125 87.33984375 C-91.21660995 88.54785645 -91.60118866 89.75586914 -91.99742126 91.00048828 C-93.04635872 94.29521063 -94.10004696 97.58839583 -95.15458679 100.88132858 C-96.26187251 104.34192066 -97.36464114 107.80395131 -98.46777344 111.26586914 C-100.09494836 116.37098091 -101.72357576 121.47562534 -103.35399055 126.57970333 C-106.57566423 136.66529241 -109.78763451 146.75395012 -112.99609375 156.84375 C-113.23929163 157.6085071 -113.48248951 158.3732642 -113.73305702 159.16119576 C-114.69814813 162.19601869 -115.66322237 165.23084699 -116.62823582 168.26569462 C-119.12051478 176.10336746 -121.61479631 183.94040262 -124.109375 191.77734375 C-124.50527328 193.02112793 -124.90117157 194.26491211 -125.30906677 195.54638672 C-126.20601827 198.36426617 -127.10299352 201.18213805 -128 204 C-136.68376225 204.78387163 -145.36765219 205.56630886 -154.05170918 206.34690857 C-158.08393471 206.70940617 -162.11611428 207.07240014 -166.14819336 207.43652344 C-170.03841589 207.78781783 -173.92875314 208.13781496 -177.81917381 208.48690796 C-179.30438597 208.62040892 -180.789556 208.7543795 -182.274683 208.88882446 C-184.35269058 209.0768611 -186.43084088 209.26323665 -188.5090332 209.44921875 C-189.69261917 209.55580811 -190.87620514 209.66239746 -192.09565735 209.7722168 C-195 210 -195 210 -198 210 C-197.43341737 205.42363324 -196.58066585 201.21085513 -195.16845703 196.82348633 C-194.78874252 195.63416504 -194.40902802 194.44484375 -194.01780701 193.21948242 C-193.59788654 191.92364018 -193.17788581 190.62782395 -192.7578125 189.33203125 C-192.31699257 187.95784816 -191.87670329 186.58349475 -191.43690491 185.20898438 C-190.4960684 182.27204566 -189.55183657 179.33622991 -188.60482788 176.40127563 C-187.11578605 171.78637989 -185.63387197 167.16921748 -184.15356445 162.55151367 C-183.65047186 160.98231348 -183.1473743 159.41311488 -182.64427185 157.84391785 C-182.39359892 157.06201773 -182.14292599 156.28011761 -181.88465691 155.47452354 C-181.11707142 153.08120845 -180.34872718 150.68813806 -179.58021545 148.29512024 C-176.14345447 137.59030072 -172.73421604 126.87705269 -169.34765625 116.15625 C-169.12609108 115.4550321 -168.90452591 114.7538142 -168.67624664 114.03134727 C-166.76256121 107.97430128 -164.85053287 101.91673367 -162.94122314 95.85830688 C-161.78927312 92.20319821 -160.63487948 88.54886352 -159.48046875 84.89453125 C-159.13983902 83.81139648 -158.79920929 82.72826172 -158.44825745 81.61230469 C-158.13815231 80.63140869 -157.82804718 79.6505127 -157.50854492 78.63989258 C-157.23958908 77.78655838 -156.97063324 76.93322418 -156.69352722 76.05403137 C-156 74 -156 74 -155 72 C-155.95745117 72.11972168 -156.91490234 72.23944336 -157.90136719 72.36279297 C-169.32574411 73.76339902 -180.7686503 74.85368058 -192.23388672 75.85986328 C-195.28775768 76.12831915 -198.34114899 76.40182839 -201.39453125 76.67578125 C-203.3515362 76.84925532 -205.30856654 77.02244321 -207.265625 77.1953125 C-208.17080872 77.27653351 -209.07599243 77.35775452 -210.00860596 77.44143677 C-214.01796788 77.79050249 -217.9705584 78.1071328 -222 78 C-221.39161755 71.07212276 -219.62234965 64.76606565 -217.578125 58.1328125 C-217.2362616 57.01687714 -216.89439819 55.90094177 -216.54217529 54.75119019 C-215.81970056 52.40521157 -215.09332876 50.06042996 -214.36328125 47.71679688 C-213.24891397 44.12149614 -212.16339999 40.51823523 -211.078125 36.9140625 C-210.371554 34.63226604 -209.66327973 32.35099616 -208.953125 30.0703125 C-208.63208801 28.99016876 -208.31105103 27.91002502 -207.98028564 26.79714966 C-207.50519562 25.30452103 -207.50519562 25.30452103 -207.02050781 23.78173828 C-206.75038879 22.90429962 -206.48026978 22.02686096 -206.20196533 21.12283325 C-204.54904845 18.2035586 -203.18745905 18.00712122 -200 17 C-197.34277708 16.62532584 -194.74361951 16.33283478 -192.07411194 16.11410522 C-191.28186405 16.04297598 -190.48961616 15.97184675 -189.67336076 15.89856207 C-187.02249855 15.66247098 -184.37081424 15.43745895 -181.71899414 15.21240234 C-179.81662806 15.04527993 -177.91432118 14.87748255 -176.0120697 14.70906067 C-170.84743563 14.25379446 -165.68200927 13.80818091 -160.51637578 13.36441755 C-155.11083669 12.89854552 -149.70603191 12.4243019 -144.3011322 11.95108032 C-135.2234171 11.15750941 -126.14521143 10.36976872 -117.06665039 9.5859375 C-105.41614987 8.58001735 -93.76650606 7.56450907 -82.11710453 6.54594994 C-72.1005491 5.67023738 -62.08360822 4.7989643 -52.06660533 3.92838717 C-48.84755302 3.64842852 -45.62855465 3.36785606 -42.40956306 3.08720016 C-37.34961453 2.64631858 -32.28943321 2.20820794 -27.22905922 1.77223778 C-25.3722192 1.61187461 -23.51545431 1.45063886 -21.65877151 1.2884655 C-19.12367324 1.06720374 -16.58831872 0.84915117 -14.0528717 0.63192749 C-12.95193722 0.53475467 -12.95193722 0.53475467 -11.82876164 0.43561876 C-7.87334804 0.10062302 -3.96923689 -0.06278974 0 0 Z " fill="#FFFFFF" transform="translate(1093,14)"/>
<path d="M0 0 C8.58 0 17.16 0 26 0 C29.3 9.9 32.6 19.8 36 30 C38.54475936 21.99832676 38.54475936 21.99832676 41.08544922 13.99536133 C41.56522217 12.49138794 41.56522217 12.49138794 42.0546875 10.95703125 C42.37937012 9.93585205 42.70405273 8.91467285 43.03857422 7.86254883 C43.93024169 5.20769837 44.95988715 2.60028212 46 0 C54.58 0 63.16 0 72 0 C72 19.8 72 39.6 72 60 C66.39 60 60.78 60 55 60 C54.67 48.78 54.34 37.56 54 26 C50.7 37.22 47.4 48.44 44 60 C39.05 60 34.1 60 29 60 C25.82708153 53.26380401 23.88250973 46.1996543 21.8125 39.0625 C20.554375 34.751875 19.29625 30.44125 18 26 C17.67 37.22 17.34 48.44 17 60 C11.39 60 5.78 60 0 60 C0 40.2 0 20.4 0 0 Z " fill="#FFFFFF" transform="translate(1166,25)"/>
<path d="M0 0 C17.82 0 35.64 0 54 0 C54 4.95 54 9.9 54 15 C48.06 15 42.12 15 36 15 C36 29.85 36 44.7 36 60 C29.73 60 23.46 60 17 60 C17 45.15 17 30.3 17 15 C11.39 15 5.78 15 0 15 C0 10.05 0 5.1 0 0 Z " fill="#FFFFFF" transform="translate(1108,25)"/>
</svg>
